<?xml version="1.0" encoding="UTF-8"?>
<svg id="Camada_1" data-name="Camada 1" xmlns="http://www.w3.org/2000/svg" viewBox="0 0 361.53 378.61">
  <defs>
    <style>
      .cls-1, .cls-2 {
        fill: #231f20;
      }

      .cls-3 {
        fill: #fff;
      }

      .cls-3, .cls-4, .cls-2, .cls-5, .cls-6 {
        fill-rule: evenodd;
      }

      .cls-7 {
        fill: #00a651;
      }

      .cls-4 {
        fill: #ed1c24;
      }

      .cls-5 {
        fill: #fbe000;
      }
    </style>
  </defs>
  <path class="cls-6" d="M36.08,31.33h289.38v144.61c0,92.09-54.04,161.14-141.45,187.91l-3.24.99-3.24-.99c-87.42-26.77-141.45-95.82-141.45-187.91V31.33Z"/>
  <path class="cls-3" d="M47.13,42.39h267.27v133.56c0,87.06-50.71,151.94-133.63,177.33-82.93-25.39-133.63-90.27-133.63-177.33V42.39Z"/>
  <path class="cls-2" d="M161.11,311.21h-5.98v-23.69h24.85v5.97h-18.88v2.84h17.8v5.98h-17.8v8.9ZM211.55,295.24c-1-8.15-7.67-8.57-13.77-8.57-6.62,0-13.9.49-13.9,10.81v3.72c0,10.32,7.28,10.81,13.9,10.81,6.12,0,12.79-.42,13.78-8.61h-6.25c-.92,2.23-3.4,2.56-7.52,2.56-5.33,0-7.93-.56-7.93-5.06v-3.13c0-4.5,2.6-5.06,7.93-5.06,4.09,0,6.58.33,7.51,2.52h6.27Z"/>
  <rect class="cls-7" x="73.17" y="142.38" width="215.18" height="36.8"/>
  <path class="cls-5" d="M282.69,223.35H78.84c-3.21-11.56-5.09-23.86-5.55-36.8h214.96c-.46,12.94-2.35,25.24-5.55,36.8"/>
  <path class="cls-4" d="M261.59,267.53H99.94c-8.02-11.09-14.35-23.41-18.84-36.8h199.33c-4.49,13.39-10.82,25.71-18.84,36.8"/>
  <path class="cls-1" d="M73.34,113.12v-41.24c0-.83.32-1.24.96-1.24h13.06c2.27,0,4.26.49,5.98,1.48,1.72.99,3.05,2.39,3.99,4.2.94,1.82,1.41,3.92,1.41,6.3,0,1.18-.17,2.34-.51,3.49s-.79,2.14-1.37,2.99c-.58.85-1.21,1.46-1.9,1.84,1.03.46,1.95,1.22,2.76,2.29.81,1.07,1.44,2.32,1.89,3.77.45,1.44.67,2.95.67,4.53,0,2.55-.47,4.8-1.42,6.74-.95,1.94-2.29,3.44-4.04,4.51-1.74,1.07-3.76,1.6-6.06,1.6h-14.46c-.64,0-.96-.42-.96-1.25ZM89.07,86.52c.63-.74.94-1.64.94-2.72s-.29-1.91-.88-2.55c-.59-.64-1.36-.96-2.33-.96h-4.79v7.35h4.58c1.03,0,1.86-.37,2.48-1.1ZM90.57,103.74c.64-.86.96-2.01.96-3.44,0-.79-.16-1.53-.48-2.23-.32-.69-.77-1.25-1.36-1.67s-1.26-.62-2.01-.62h-5.66v9.24h5.98c1.08,0,1.94-.43,2.58-1.29Z"/>
  <path class="cls-1" d="M103.44,113.12v-41.24c0-.83.32-1.24.96-1.24h13.66c2.33,0,4.39.63,6.19,1.88,1.8,1.26,3.2,3.01,4.2,5.26,1,2.25,1.51,4.83,1.51,7.73s-.44,5.16-1.33,7.14c-.88,1.98-2.12,3.59-3.71,4.84l5.98,15.41c.1.25.14.47.14.65,0,.25-.08.45-.23.59-.15.15-.36.22-.61.22h-7.71c-.53,0-.91-.31-1.13-.93l-4.72-13.04c-.24.02-.59.03-1.04.03h-3.49v12.7c0,.83-.32,1.25-.96,1.25h-6.75c-.64,0-.96-.42-.96-1.25ZM119.27,90.18c.59-.5,1.06-1.16,1.4-1.99.34-.83.51-1.71.51-2.65,0-1.64-.37-2.9-1.11-3.78-.74-.88-1.65-1.32-2.72-1.32h-5.23v10.49h5.16c.74,0,1.41-.25,2-.75Z"/>
  <path class="cls-1" d="M139.99,112.98c-2.19-1.55-3.86-3.69-5.01-6.43s-1.72-5.85-1.72-9.34v-25.33c0-.83.32-1.24.96-1.24h6.75c.64,0,.96.42.96,1.24v23.75c0,1.87.24,3.5.71,4.89.47,1.39,1.16,2.46,2.05,3.22.89.76,1.93,1.14,3.12,1.14s2.26-.38,3.16-1.14c.9-.76,1.59-1.83,2.07-3.22.48-1.39.72-3.02.72-4.89v-23.75c0-.83.32-1.24.96-1.24h6.75c.64,0,.96.42.96,1.24v25.33c0,3.49-.58,6.6-1.73,9.34s-2.84,4.88-5.04,6.43c-2.2,1.55-4.82,2.32-7.85,2.32s-5.63-.77-7.82-2.32Z"/>
  <path class="cls-1" d="M170.75,113.18c-2.29-1.29-4.29-3.16-5.99-5.63-.19-.29-.29-.57-.29-.84,0-.31.12-.62.36-.93l4.27-5.23c.21-.27.43-.4.65-.4.26,0,.49.16.7.47,1.03,1.37,2.18,2.4,3.45,3.1,1.27.7,2.59,1.04,3.95,1.04s2.39-.3,3.06-.9c.67-.6,1.01-1.42,1.01-2.46,0-.71-.15-1.32-.45-1.84-.3-.52-.87-1.04-1.71-1.56s-2.08-1.09-3.7-1.71c-2.68-1.02-5.07-2.64-7.17-4.87-2.1-2.23-3.14-5.24-3.14-9.04,0-2.26.44-4.35,1.33-6.26.88-1.91,2.23-3.44,4.05-4.59,1.81-1.15,4.05-1.73,6.7-1.73,2.23,0,4.37.52,6.41,1.56s3.86,2.44,5.45,4.2c.24.27.36.57.36.9,0,.29-.1.58-.29.87l-3.9,5.66c-.21.33-.44.5-.7.5-.21,0-.43-.11-.65-.34-.9-.91-1.92-1.69-3.06-2.32-1.14-.63-2.27-.95-3.37-.95-2.26,0-3.4.86-3.4,2.58,0,.73.18,1.34.55,1.84s.86.92,1.48,1.28c.62.35,1.57.82,2.86,1.4.18.06.44.18.79.34,2.28,1.04,4.17,2.15,5.66,3.33s2.65,2.63,3.47,4.34c.82,1.71,1.23,3.77,1.23,6.18,0,2.78-.52,5.22-1.57,7.33-1.04,2.11-2.52,3.73-4.43,4.89-1.91,1.15-4.13,1.73-6.65,1.73s-5.02-.64-7.31-1.93Z"/>
  <path class="cls-1" d="M225.57,102.32c-1.14,3.07-2.72,5.67-4.75,7.8-2.02,2.13-4.33,3.59-6.92,4.4v7.62c0,.83-.32,1.25-.96,1.25h-6.75c-.64,0-.96-.42-.96-1.25v-7.72c-2.55-.83-4.83-2.31-6.82-4.44-1.99-2.13-3.55-4.71-4.66-7.77-1.12-3.05-1.67-6.32-1.67-9.8,0-4.15.77-7.96,2.33-11.42,1.55-3.46,3.67-6.2,6.35-8.2,2.68-2,5.66-3,8.94-3s6.23,1.01,8.92,3.02c2.68,2.01,4.8,4.75,6.35,8.2,1.55,3.45,2.33,7.26,2.33,11.41,0,3.53-.57,6.83-1.71,9.9ZM214.05,102.83c1.35-1.05,2.43-2.49,3.23-4.33.8-1.84,1.21-3.85,1.21-6.05s-.41-4.21-1.22-6.04c-.81-1.83-1.89-3.26-3.24-4.31-1.35-1.05-2.79-1.57-4.34-1.57s-3.01.52-4.36,1.57c-1.35,1.05-2.43,2.48-3.24,4.31-.81,1.83-1.22,3.84-1.22,6.04s.41,4.21,1.22,6.04c.81,1.83,1.9,3.27,3.25,4.33s2.81,1.59,4.35,1.59,3.01-.52,4.36-1.57Z"/>
  <path class="cls-1" d="M236.56,112.98c-2.19-1.55-3.86-3.69-5.01-6.43s-1.72-5.85-1.72-9.34v-25.33c0-.83.32-1.24.96-1.24h6.75c.64,0,.96.42.96,1.24v23.75c0,1.87.24,3.5.71,4.89.47,1.39,1.16,2.46,2.05,3.22.89.76,1.93,1.14,3.12,1.14s2.26-.38,3.16-1.14c.9-.76,1.59-1.83,2.07-3.22.48-1.39.72-3.02.72-4.89v-23.75c0-.83.32-1.24.96-1.24h6.75c.64,0,.96.42.96,1.24v25.33c0,3.49-.58,6.6-1.73,9.34s-2.84,4.88-5.04,6.43c-2.2,1.55-4.82,2.32-7.85,2.32s-5.63-.77-7.82-2.32Z"/>
  <path class="cls-1" d="M287.23,114.36h-23.04c-.64,0-.96-.42-.96-1.25v-41.24c0-.83.32-1.24.96-1.24h22.67c.64,0,.96.42.96,1.24v7.63c0,.83-.32,1.24-.96,1.24h-14.96v6.82h11.49c.64,0,.96.42.96,1.25v7c0,.83-.32,1.24-.96,1.24h-11.49v7.19h15.32c.64,0,.96.42.96,1.25v7.62c0,.83-.32,1.25-.96,1.25Z"/>
</svg>