<?xml version="1.0" encoding="UTF-8"?>
<svg id="Camada_1" data-name="Camada 1" xmlns="http://www.w3.org/2000/svg" viewBox="0 0 361.53 378.61">
  <defs>
    <style>
      .cls-1 {
        fill: #fff;
      }

      .cls-1, .cls-2, .cls-3, .cls-4, .cls-5, .cls-6 {
        fill-rule: evenodd;
      }

      .cls-2 {
        fill: #ed1c24;
      }

      .cls-3 {
        fill: #231f20;
      }

      .cls-4 {
        fill: #fbe000;
      }

      .cls-6 {
        fill: #00a651;
      }
    </style>
  </defs>
  <path class="cls-5" d="M36.08,31.33h289.38v144.61c0,92.09-54.04,161.14-141.45,187.91l-3.24.99-3.24-.99c-87.42-26.77-141.45-95.82-141.45-187.91V31.33Z"/>
  <path class="cls-1" d="M47.13,42.39h267.27v133.56c0,87.06-50.71,151.94-133.63,177.33-82.93-25.39-133.63-90.27-133.63-177.33V42.39Z"/>
  <path class="cls-2" d="M237.5,99.14h51.67l.07,59.01v25.11c-.79,46.4-19.48,84.83-51.74,111.24V99.14Z"/>
  <path class="cls-4" d="M156.93,128.44h47.54v186.69c-7.48,3.49-15.39,6.53-23.7,9.07-8.36-2.56-16.31-5.61-23.83-9.13v-186.63Z"/>
  <path class="cls-6" d="M72.16,99.14h51.74v195.26c-32.89-26.98-51.64-66.48-51.64-114.19l-.1-81.07Z"/>
  <path class="cls-5" d="M244.43,85.28c-7.24,0-15.2-.53-15.2-11.82v-14.65h6.53v14.32c0,4.92,2.84,5.53,8.66,5.53s8.67-.61,8.67-5.53v-14.32h6.53v14.65c0,11.28-7.95,11.82-15.2,11.82M102.86,58.82h19.72c5.03,0,9.11,4.08,9.11,9.11,0,4.14-2.76,7.63-6.53,8.74l5.61,8.05h-7.78l-5.35-7.68h-8.24v7.68h-6.53v-25.9ZM109.39,65.35v5.15h13.19c1.42,0,2.58-1.15,2.58-2.58s-1.15-2.58-2.58-2.58h-13.19ZM78.69,78.18h13.73c.88,0,1.6-.71,1.6-1.6s-.72-1.6-1.6-1.6h-13.73v3.2ZM92.83,84.71h-20.67v-25.9h20.3c3.84,0,6.96,3.39,6.96,6.58s-1.93,4.83-3.54,6.05c2.55.96,4.84,3.11,4.84,6.51s-3.53,6.77-7.88,6.77ZM91.27,65.35h-12.58v3.11h12.58c.86,0,1.55-.7,1.55-1.55s-.7-1.55-1.55-1.55ZM149.3,85.28c-7.24,0-15.2-.53-15.2-11.82v-14.65h6.53v14.32c0,4.92,2.84,5.53,8.67,5.53s8.66-.61,8.66-5.53v-14.32h6.53v14.65c0,11.28-7.95,11.82-15.2,11.82ZM211.73,57.91c-7.24,0-15.2.54-15.2,11.82v4.07c0,11.28,7.96,11.82,15.2,11.82h.07l2.85,4.09h7.78l-3.21-4.61c5.13-.97,7.71-3.69,7.71-11.29v-4.07c0-11.28-7.96-11.82-15.2-11.82ZM203.06,71.76v-1.71c0-4.92,2.84-5.53,8.66-5.53s8.66.61,8.66,5.53v3.42c0,4.92-2.84,5.53-8.66,5.53s-8.66-.61-8.66-5.53v-1.71ZM268.75,78.18h20.63v6.53h-27.16v-25.9h27.16v6.53h-20.63v3.11h19.45v6.53h-19.45v3.2ZM186.97,68.45c4.47,0,8.09,3.67,8.09,8.13s-3.62,8.09-8.09,8.09h-20.02v-6.53h20.02c.86,0,1.55-.7,1.55-1.55s-.7-1.55-1.55-1.55l-12.16-.05c-4.47,0-8.08-3.62-8.08-8.09s3.62-8.08,8.08-8.08h19.59v6.53h-19.59c-.86,0-1.55.7-1.55,1.55s.7,1.55,1.55,1.55h12.16Z"/>
  <path class="cls-3" d="M161.98,119.21h-5.05v-20.02h21v5.05h-15.95v2.4h15.04v5.05h-15.04v7.52ZM204.6,105.72c-.85-6.89-6.48-7.24-11.64-7.24-5.6,0-11.75.41-11.75,9.14v3.14c0,8.72,6.15,9.14,11.75,9.14,5.17,0,10.81-.35,11.64-7.28h-5.28c-.78,1.88-2.88,2.17-6.36,2.17-4.5,0-6.7-.47-6.7-4.28v-2.64c0-3.81,2.19-4.28,6.7-4.28,3.46,0,5.56.28,6.34,2.13h5.3Z"/>
</svg>