<?xml version="1.0" encoding="UTF-8"?>
<svg id="Camada_1" data-name="Camada 1" xmlns="http://www.w3.org/2000/svg" viewBox="0 0 361.53 378.61">
  <defs>
    <style>
      .cls-1, .cls-2 {
        fill-rule: evenodd;
      }

      .cls-1, .cls-3 {
        fill: #00559f;
      }

      .cls-4, .cls-2 {
        fill: #fff;
      }
    </style>
  </defs>
  <path class="cls-1" d="M313.09,64.26c-6.24,15.71-8.72,33.54-8.72,50.37v111.94c0,57.89-31.85,99.6-84.3,121.77l-39.01,16.49-39.01-16.49c-52.45-22.18-84.3-63.88-84.3-121.77V79.89l10.72,1.73c11.85,1.91,23.85,2.86,35.85,2.86,53.17,0,104.17-18.64,144.75-52.99l4.46-3.77,62.83,28.33-3.26,8.21Z"/>
  <path class="cls-2" d="M304.5,60.85l-49.45-22.3c-42.19,35.71-95.29,55.18-150.73,55.18-12.5,0-24.99-1-37.32-2.98v135.83c0,53.99,29.47,92.45,78.66,113.25l35.4,14.97,35.4-14.97c49.19-20.8,78.66-59.26,78.66-113.25v-111.94c0-17.83,2.67-36.9,9.38-53.79"/>
  <path class="cls-1" d="M292,68.85c-4.29,14.77-6.13,30.44-6.13,45.79v111.94c0,50.43-27.44,85.47-73.01,104.73l-31.8,13.45-31.8-13.45c-45.56-19.26-73.01-54.3-73.01-104.73v-125.18l4.06.4c7.98.79,15.99,1.18,24.01,1.18,54.73,0,107.5-18.28,150.42-52.23l1.77-1.4,36.38,16.41-.9,3.08Z"/>
  <path class="cls-2" d="M116.15,294.71c10.19,10.09,23.04,18.28,38.15,24.67l26.76,11.31,26.76-11.31c15.11-6.39,27.96-14.58,38.15-24.67H116.15Z"/>
  <path class="cls-2" d="M89.57,235.97c.85,10.68,3.15,20.47,6.8,29.37h169.37c3.65-8.9,5.96-18.69,6.8-29.37H89.57Z"/>
  <rect class="cls-4" x="89.2" y="177.23" width="183.72" height="29.37"/>
  <path class="cls-2" d="M277.52,73.04l-19.21-8.66c-44.38,33.54-98.24,51.56-153.98,51.56-5.04,0-10.09-.15-15.12-.44v32.37h183.72v-33.22c0-13.92,1.41-28,4.6-41.6"/>
  <path class="cls-1" d="M257.28,142.04c0,.39-.2.59-.59.59h-3.58c-.39,0-.59-.2-.59-.59v-15.59h-5.15c-.39,0-.59-.2-.59-.59v-3.26c0-.39.2-.59.59-.59h15.06c1.02,0,.59,2.96.59,3.84,0,.39-.2.59-.59.59h-5.17v15.59ZM231.27,142.04c0,.39-.2.59-.59.59h-3.58c-.39,0-.59-.2-.59-.59v-19.43c0-.39.2-.59.59-.59h3.58c.39,0,.59.2.59.59v7.01h8.38v-7.01c0-.39.2-.59.59-.59h3.6c.39,0,.59.2.59.59v19.43c0,.39-.2.59-.59.59h-3.6c-.39,0-.59-.2-.59-.59v-7.88h-8.38v7.88ZM217.02,143c-1.98,0-3.78-.48-5.42-1.43-1.63-.95-2.92-2.25-3.87-3.89-.94-1.64-1.41-3.43-1.41-5.39s.47-3.75,1.41-5.37c.94-1.63,2.22-2.91,3.86-3.86,1.63-.94,3.44-1.41,5.43-1.41,1.22,0,2.39.19,3.5.55,1.11.37,2.11.9,3,1.59.16.13.25.27.25.44,0,.13-.05.25-.15.38l-2.06,2.7c-.14.17-.29.25-.44.25-.12,0-.25-.05-.38-.13-.55-.37-1.14-.67-1.77-.89-.64-.22-1.28-.33-1.94-.33-1.05,0-2.02.27-2.92.8-.9.54-1.62,1.28-2.15,2.21-.53.93-.8,1.96-.8,3.09s.27,2.17.81,3.1c.54.94,1.25,1.67,2.16,2.21.9.55,1.87.81,2.91.81.72,0,1.37-.1,1.94-.29.57-.2,1.17-.52,1.8-.97.14-.09.26-.13.38-.13.18,0,.33.08.45.25l2.02,2.71c.11.15.16.29.16.41,0,.14-.07.26-.22.38-.91.71-1.92,1.25-3.03,1.63-1.11.38-2.28.57-3.51.57ZM199.05,135.12l-2.35-6.61-.23-.84-.21.84-2.35,6.61h5.13ZM206.3,141.95c.03.09.05.17.05.25,0,.14-.05.25-.13.32-.09.07-.21.11-.37.11h-3.68c-.33,0-.55-.16-.66-.48l-1.09-3.02h-7.88l-1.07,3.02c-.1.32-.32.48-.66.48h-3.68c-.16,0-.28-.04-.37-.11-.1-.07-.14-.18-.14-.32,0-.08.01-.16.05-.25l7.57-19.5c.12-.31.34-.47.67-.47h3.18c.35,0,.57.16.69.47l7.53,19.5ZM177.61,131.82c.54,0,1.02-.13,1.45-.38.42-.26.75-.6,1-1.04.24-.43.36-.91.36-1.43,0-.58-.12-1.07-.37-1.49-.24-.41-.57-.73-.99-.94-.42-.21-.88-.31-1.4-.31h-3.6v5.59h3.55ZM169.89,142.63c-.39,0-.59-.2-.59-.59v-19.43c0-.39.2-.59.59-.59h8.16c1.4,0,2.66.29,3.74.88,1.09.59,1.93,1.4,2.54,2.45.61,1.05.91,2.25.91,3.61s-.28,2.47-.84,3.41c-.56.95-1.35,1.71-2.36,2.29l3.61,7.28c.06.12.09.22.09.31,0,.12-.05.21-.14.28-.09.07-.21.1-.37.1h-4.11c-.32,0-.55-.15-.69-.44l-2.93-6.29c-.18,0-.44.02-.78.02h-2.66v6.13c0,.39-.2.59-.59.59h-3.58ZM161.16,142.04c0,.39-.2.59-.59.59h-3.58c-.39,0-.59-.2-.59-.59v-15.59h-5.15c-.39,0-.59-.2-.59-.59v-3.26c0-.39.2-.59.59-.59h15.06c.39,0,.59.2.59.59v3.26c0,.39-.2.59-.59.59h-5.17v15.59ZM135.06,142.04c0,.39-.2.59-.59.59h-3.46c-.39,0-.59-.2-.59-.59v-19.43c0-.39.2-.59.59-.59h3.9c.31,0,.55.13.71.38l8.03,12.17v-11.97c0-.39.2-.59.59-.59h3.46c.39,0,.59.2.59.59v19.43c0,.39-.2.59-.59.59h-3.48c-.3,0-.54-.13-.7-.38l-8.45-12.73v12.53ZM126.38,142.04c0,.39-.2.59-.59.59h-3.58c-.39,0-.59-.2-.59-.59v-19.43c0-.39.2-.59.59-.59h3.58c.39,0,.59.2.59.59v19.43ZM118.68,142.04c0,.39-.2.59-.59.59h-13.91c-.39,0-.59-.2-.59-.59v-19.43c0-.39.2-.59.59-.59h13.7c.39,0,.59.2.59.59v3.15c0,.39-.2.59-.59.59h-9.54v3.71h7.33c.39,0,.59.2.59.59v2.91c0,.39-.2.59-.59.59h-7.33v4.17h9.74c.39,0,.59.2.59.59v3.16Z"/>
  <polygon class="cls-1" points="181.06 159.72 242.81 235.98 181.06 312.24 119.31 235.98 181.06 159.72"/>
  <polygon class="cls-2" points="181.06 173.76 231.43 235.98 181.06 298.19 130.69 235.98 153.94 206.44 181.06 173.76"/>
  <path class="cls-1" d="M196.36,260.45c0,1.02-.54,1.57-1.57,1.57h-27.87c-1.03,0-1.57-.52-1.57-1.57v-60.52c0-1.05.52-1.57,1.57-1.57h28.28c1.05,0,1.57.54,1.57,1.57v8.57c0,1.02-.55,1.57-1.57,1.57h-16.99v14.64h12.78c1.05,0,1.57.54,1.57,1.57v7.91c0,1.03-.54,1.57-1.57,1.57h-12.78v14.54h16.59c1.05,0,1.57.54,1.57,1.57v8.58Z"/>
  <g>
    <path class="cls-3" d="M214.74,117.35c-1.44-.63-2.7-1.54-3.77-2.75-.12-.14-.18-.28-.18-.41,0-.15.08-.3.23-.46l2.69-2.55c.13-.13.27-.2.41-.2.16,0,.31.08.44.23.65.67,1.37,1.17,2.17,1.51.8.34,1.63.51,2.49.51s1.5-.15,1.93-.44c.43-.29.64-.69.64-1.2,0-.34-.09-.64-.28-.9s-.55-.51-1.08-.76c-.53-.25-1.31-.53-2.33-.84-1.69-.5-3.2-1.29-4.52-2.38-1.32-1.09-1.98-2.56-1.98-4.41,0-1.1.28-2.12.84-3.05.56-.93,1.41-1.68,2.55-2.24,1.14-.56,2.55-.84,4.22-.84,1.41,0,2.75.25,4.04.76,1.29.51,2.43,1.19,3.43,2.05.15.13.23.28.23.44,0,.14-.06.28-.18.43l-2.46,2.76c-.13.16-.28.24-.44.24-.13,0-.27-.06-.41-.17-.57-.45-1.21-.82-1.93-1.13-.72-.31-1.43-.46-2.13-.46-1.43,0-2.14.42-2.14,1.26,0,.35.12.65.35.9.23.24.54.45.93.62.39.17.99.4,1.8.68.11.03.28.09.5.17,1.44.51,2.63,1.05,3.57,1.62.94.58,1.67,1.28,2.19,2.12.52.83.77,1.84.77,3.01,0,1.36-.33,2.55-.99,3.58s-1.59,1.82-2.79,2.38c-1.2.56-2.6.84-4.19.84s-3.17-.31-4.61-.94Z"/>
    <path class="cls-3" d="M233.97,117.92h-4.02c-.41,0-.61-.2-.61-.61v-3.57c0-.4.2-.61.61-.61h4.02c.4,0,.61.2.61.61v3.57c0,.41-.2.61-.61.61Z"/>
    <path class="cls-3" d="M248.03,117.92h-3.54c-.34,0-.58-.16-.7-.49l-7.71-20.15c-.03-.09-.05-.18-.05-.26,0-.14.05-.25.14-.33.09-.08.22-.11.38-.11h4.59c.34,0,.57.17.68.5l4.4,13.1h.06l4.39-13.1c.11-.33.34-.5.68-.5h4.6c.16,0,.29.04.38.11.09.08.14.19.14.33,0,.08-.02.17-.05.26l-7.7,20.15c-.12.32-.35.49-.7.49Z"/>
    <path class="cls-3" d="M262.56,117.92h-4.02c-.41,0-.61-.2-.61-.61v-3.57c0-.4.2-.61.61-.61h4.02c.4,0,.61.2.61.61v3.57c0,.41-.2.61-.61.61Z"/>
  </g>
  <g>
    <path class="cls-3" d="M165.58,274.5v-7.25c0-.15.07-.22.22-.22h2.96c.51,0,.97.09,1.36.26.39.17.69.42.91.74.21.32.32.69.32,1.11,0,.21-.04.41-.11.61-.08.2-.18.38-.31.53-.13.15-.27.26-.43.32.23.08.44.21.63.4s.33.41.43.66.15.52.15.8c0,.45-.11.84-.32,1.18s-.52.61-.92.79c-.4.19-.85.28-1.38.28h-3.28c-.15,0-.22-.07-.22-.22ZM169.16,269.83c.14-.13.21-.29.21-.48s-.07-.34-.2-.45c-.13-.11-.31-.17-.53-.17h-1.09v1.29h1.04c.23,0,.42-.06.56-.19ZM169.49,272.85c.15-.15.22-.35.22-.6,0-.14-.04-.27-.11-.39-.07-.12-.18-.22-.31-.29s-.29-.11-.46-.11h-1.29v1.62h1.36c.24,0,.44-.08.59-.23Z"/>
    <path class="cls-3" d="M174.42,274.32c-.61-.36-1.09-.84-1.44-1.45s-.53-1.28-.53-2.01.18-1.4.53-2.01c.35-.61.83-1.09,1.44-1.44s1.29-.53,2.03-.53,1.41.18,2.02.53c.61.35,1.09.83,1.44,1.44s.53,1.28.53,2-.18,1.39-.53,2c-.35.61-.83,1.1-1.44,1.45-.61.36-1.28.54-2.02.54s-1.42-.18-2.03-.54ZM177.44,272.69c.31-.18.55-.44.73-.76.18-.32.27-.68.27-1.06s-.09-.74-.28-1.06c-.18-.32-.43-.57-.74-.76-.31-.18-.63-.28-.98-.28s-.68.09-.99.28c-.31.18-.55.44-.74.76-.18.32-.28.67-.28,1.06s.09.74.28,1.06c.18.32.43.57.74.76.31.19.64.28.99.28s.68-.09.99-.28Z"/>
    <path class="cls-3" d="M183.29,274.72h-1.48c-.15,0-.22-.07-.22-.22v-7.25c0-.15.07-.22.22-.22h1.69c.12,0,.2.05.26.14l2.62,4.2v-4.12c0-.15.07-.22.22-.22h1.48c.15,0,.22.07.22.22v7.25c0,.15-.07.22-.22.22h-1.5c-.11,0-.2-.05-.26-.14l-2.81-4.44v4.36c0,.15-.07.22-.22.22Z"/>
    <path class="cls-3" d="M191.52,274.72h-1.48c-.15,0-.22-.07-.22-.22v-7.25c0-.15.07-.22.22-.22h1.69c.12,0,.2.05.26.14l2.62,4.2v-4.12c0-.15.07-.22.22-.22h1.48c.15,0,.22.07.22.22v7.25c0,.15-.07.22-.22.22h-1.5c-.11,0-.2-.05-.26-.14l-2.81-4.44v4.36c0,.15-.07.22-.22.22Z"/>
  </g>
</svg>