<?xml version="1.0" encoding="UTF-8"?>
<svg id="Camada_1" data-name="Camada 1" xmlns="http://www.w3.org/2000/svg" viewBox="0 0 361.53 378.61">
  <defs>
    <style>
      .cls-1 {
        fill-rule: evenodd;
      }
    </style>
  </defs>
  <path d="M47.62,226.3v-26.95c0-1.05.7-1.75,1.75-1.75h7.35c1.05,0,1.75.7,1.75,1.75v24.99c0,10.15,4.13,9.66,11.06,9.66h10.01c1.05,0,1.82.7,1.82,1.75v6.23c0,1.12-.77,1.82-1.82,1.82h-11.76c-12.88,0-20.16-4.27-20.16-17.5Z"/>
  <path d="M86.04,241.97v-42.62c0-1.05.7-1.75,1.75-1.75h7.35c1.05,0,1.75.7,1.75,1.75v42.62c0,1.12-.7,1.82-1.75,1.82h-7.35c-1.05,0-1.75-.7-1.75-1.82Z"/>
  <path d="M101.77,199.7c0-1.26.7-2.1,1.82-2.1h7.28c.91,0,1.82.7,1.82,1.75,0,24.64,8.05,35.49,12.46,35.49,4.13,0,11.41-10.85,11.41-35.49,0-1.05.91-1.75,1.82-1.75h6.93c1.12,0,1.82.84,1.82,2.1,0,28.42-10.15,45-22.47,45s-22.89-16.59-22.89-45Z"/>
  <path d="M152.01,241.97v-42.62c0-1.05.7-1.75,1.75-1.75h7.35c1.05,0,1.75.7,1.75,1.75v42.62c0,1.12-.7,1.82-1.75,1.82h-7.35c-1.05,0-1.75-.7-1.75-1.82Z"/>
  <path d="M190.78,239.45c-4.41-3.78-8.68-9.87-12.25-18.48v21c0,1.12-.7,1.82-1.82,1.82h-6.23c-1.05,0-1.75-.7-1.75-1.82v-42.56c0-1.12.7-1.82,1.75-1.82h8.61c.7,0,1.19.35,1.4,1.05,1.12,3.64,4.2,10.15,8.05,17.15,5.88,10.71,11.06,16.59,14.07,16.59,1.82,0,3.08-1.61,3.08-5.04,0-7.98-.7-16.45-1.96-27.51-.14-1.26.49-2.31,1.96-2.31l6.58.07c1.05,0,1.68,1.12,1.75,1.96.84,8.47,1.61,18.9,1.61,27.09,0,14.14-6.23,17.85-13.02,17.85-3.78,0-7.91-1.61-11.83-5.04Z"/>
  <path d="M220.51,220.77c0-13.37,9.8-24.43,23.73-24.43,8.82,0,13.93,2.94,17.78,6.79.7.7.77,1.61.14,2.38l-3.92,4.41c-.77.91-1.82.84-2.73,0-2.17-1.96-5.95-3.78-10.36-3.78-7,0-13.79,5.88-13.79,14.63s5.88,14.07,12.67,14.07,10.15-4.34,9.52-8.89h-9.17c-1.05,0-1.75-.7-1.75-1.82v-6.23c0-1.05.7-1.75,1.75-1.75l18.13.14c1.33,0,1.89.91,2.03,1.82.21,1.61.28,3.22.28,4.69.14,14.7-8.68,21.91-20.79,21.91s-23.52-8.75-23.52-23.94Z"/>
  <path d="M48.18,287.34v-42.62c0-1.05.7-1.75,1.75-1.75h11.83c1.05,0,1.75.49,2.45,1.54.91,1.26,7.49,13.09,11.62,23.59,3.92-10.5,10.5-22.33,11.41-23.59.7-1.05,1.47-1.54,2.52-1.54h11.76c1.05,0,1.82.7,1.82,1.75v42.62c0,1.12-.77,1.82-1.82,1.82h-7.28c-1.12,0-1.82-.7-1.82-1.82v-31.57c-4.27,5.88-9.45,17.15-11.76,26.25-.21.7-.91,1.26-1.61,1.26h-7.7c-.7,0-1.4-.56-1.61-1.26-2.66-10.5-7.84-20.16-11.76-25.69v31.01c0,1.12-.7,1.82-1.82,1.82h-6.23c-1.05,0-1.75-.7-1.75-1.82Z"/>
  <path d="M106.77,265.65c-.35-12.53,7.35-22.68,19.46-22.68h14.84c1.05,0,1.75.7,1.75,1.75v6.23c0,1.12-.7,1.82-1.75,1.82h-13.44c-5.53,0-9.1,2.03-9.94,8.4h18.55c1.05,0,1.75.7,1.75,1.75v6.23c0,1.12-.7,1.82-1.75,1.82h-18.48c.98,6.16,4.62,8.4,10.29,8.4h13.02c1.12,0,1.82.7,1.82,1.75v6.23c0,1.12-.7,1.82-1.82,1.82h-15.05c-11.9,0-18.83-9.17-19.25-23.52Z"/>
  <path d="M146.03,287.34v-42.62c0-1.05.7-1.75,1.75-1.75h11.83c1.05,0,1.75.49,2.45,1.54.91,1.26,7.49,13.09,11.62,23.59,3.92-10.5,10.5-22.33,11.41-23.59.7-1.05,1.47-1.54,2.52-1.54h11.76c1.05,0,1.82.7,1.82,1.75v42.62c0,1.12-.77,1.82-1.82,1.82h-7.28c-1.12,0-1.82-.7-1.82-1.82v-31.57c-4.27,5.88-9.45,17.15-11.76,26.25-.21.7-.91,1.26-1.61,1.26h-7.7c-.7,0-1.4-.56-1.61-1.26-2.66-10.5-7.84-20.16-11.76-25.69v31.01c0,1.12-.7,1.82-1.82,1.82h-6.23c-1.05,0-1.75-.7-1.75-1.82Z"/>
  <path d="M204.34,265.72c0-13.16,9.8-24.01,23.52-24.01,14.7,0,24.08,10.22,24.08,23.73s-9.59,24.64-23.8,24.64-23.8-10.64-23.8-24.36ZM241.08,265.72c0-8.68-6.16-14.21-12.95-14.21s-12.95,5.39-12.95,13.93c0,9.1,5.32,14.77,12.67,14.77s13.23-5.53,13.23-14.49Z"/>
  <path d="M295.05,281.81v5.53c0,1.12-.7,1.82-1.82,1.82-9.17,0-19.67-3.08-22.75-13.16-1.47-.07-3.01-.21-4.55-.35v11.69c0,1.12-.7,1.82-1.75,1.82h-7.35c-1.05,0-1.75-.7-1.75-1.82v-42.62c0-1.05.7-1.75,1.75-1.75h20.93c12.46,0,18.9,7.98,18.9,16.24s-4.55,14.14-14.49,16.1c.98,3.36,5.11,4.76,11.06,4.76,1.12,0,1.82.84,1.82,1.75ZM265.93,266.2c2.38.21,4.55.28,6.44.28,9.87,0,13.58-2.38,13.58-7.28,0-3.22-2.66-6.44-8.19-6.44h-11.83v13.44Z"/>
  <path d="M324.86,274.18v13.16c0,1.12-.7,1.82-1.82,1.82h-7.28c-1.12,0-1.82-.7-1.82-1.82v-12.95c-9.94-3.22-16.03-15.75-16.03-29.68,0-1.05.7-1.75,1.75-1.75h7.35c1.05,0,1.75.7,1.75,1.75,0,8.96,2.73,20.72,10.36,20.72s10.57-12.88,10.57-20.72c0-1.05.7-1.75,1.75-1.75h6.79c1.05,0,1.82.7,1.82,1.75,0,13.86-6.02,25.9-15.19,29.47Z"/>
  <path d="M64.91,298.15c.78,0,1.17.42,1.2,1.2l.68,15.67h-3.01l-.56-14.4h-.46l-2.91,11.22c-.17.66-.59,1.03-1.27,1.03h-2.35c-.71,0-1.12-.37-1.3-1.03l-2.96-11.22h-.42l-.54,14.4h-2.98l.64-15.67c.02-.78.42-1.2,1.2-1.2h3.18c.68,0,1.08.34,1.25,1.03l2.4,9.14c.22.78.34,1.52.51,2.3h.37c.15-.78.29-1.52.51-2.32l2.4-9.12c.17-.68.59-1.03,1.27-1.03h3.15Z"/>
  <path d="M81.8,314.87c-2.22.2-4.96.2-7.43.2-2.22,0-3.59-1.22-3.62-3.2v-10.56c.02-1.98,1.42-3.2,3.62-3.2,2.47,0,5.21,0,7.43.2l-.15,2.35h-6.6c-.88,0-1.22.37-1.22,1.42v2.96h6.92v2.35h-6.92v3.76c0,1.05.34,1.42,1.22,1.42h6.6l.15,2.32Z"/>
  <path d="M102.01,298.15c.78,0,1.17.42,1.2,1.2l.68,15.67h-3.01l-.56-14.4h-.46l-2.91,11.22c-.17.66-.59,1.03-1.27,1.03h-2.35c-.71,0-1.12-.37-1.3-1.03l-2.96-11.22h-.42l-.54,14.4h-2.98l.64-15.67c.02-.78.42-1.2,1.2-1.2h3.18c.68,0,1.08.34,1.25,1.03l2.4,9.14c.22.78.34,1.52.51,2.3h.37c.15-.78.29-1.52.51-2.32l2.4-9.12c.17-.68.59-1.03,1.27-1.03h3.15Z"/>
  <path d="M121.32,306.59c0,6.7-1.81,8.75-6.94,8.75s-6.97-2.05-6.97-8.75,1.83-8.75,6.97-8.75,6.94,2.05,6.94,8.75ZM110.64,306.59c0,4.69.88,6.14,3.74,6.14s3.74-1.44,3.74-6.14-.9-6.14-3.74-6.14-3.74,1.44-3.74,6.14ZM113.4,297.32l-.93-1.32,4.6-3.59,1.54,2.18-5.21,2.74Z"/>
  <path d="M134.54,315.02l-1.34-5.23c-.34-1.1-.93-1.52-1.96-1.52h-3.03v6.75h-3.03v-16.87c1.93-.2,3.25-.22,6.14-.22,4.16,0,5.87,1.1,5.87,4.94,0,2.52-.83,3.96-3.15,4.25v.12c.83.2,1.88.88,2.25,2.49l1.52,5.28h-3.25ZM131.24,305.75c2.15-.02,2.84-.61,2.84-2.69s-.68-2.62-2.84-2.62h-3.03v5.3h3.03Z"/>
  <path d="M141.24,315.02v-16.87h3.06v16.87h-3.06Z"/>
  <path d="M151.5,310.25l-1.39,4.77h-3.13l5.06-16.06c.15-.51.59-.81,1.1-.81h2.98c.51,0,.95.29,1.1.81l5.06,16.06h-3.13l-1.39-4.77h-6.26ZM155.34,301.92c-.12-.46-.29-.98-.37-1.44h-.66l-.39,1.44-1.69,5.82h4.79l-1.69-5.82Z"/>
  <path d="M188.37,306.59c0,6.6-1.83,8.65-6.89,8.65-2.44,0-4.45-.1-6.31-.22v-16.87c1.86-.12,3.84-.22,6.31-.22,5.06,0,6.89,2.05,6.89,8.65ZM185.14,306.59c0-4.64-.88-6.11-3.67-6.11-1.25,0-2.27.02-3.25.02v12.12c.95.02,2.03.05,3.25.05,2.79,0,3.67-1.44,3.67-6.09Z"/>
  <path d="M205.57,306.59c0,6.7-1.81,8.75-6.97,8.75s-6.94-2.05-6.94-8.75,1.81-8.75,6.94-8.75,6.97,2.05,6.97,8.75ZM194.89,306.59c0,4.69.88,6.14,3.72,6.14s3.74-1.44,3.74-6.14-.88-6.14-3.74-6.14-3.72,1.44-3.72,6.14Z"/>
  <path d="M232.1,303.36c0,4.28-1.42,5.43-5.4,5.43-1.22,0-2.42-.07-3.45-.2v6.43h-3.06v-16.87c1.93-.2,3.23-.22,6.11-.22,4.38,0,5.79,1.17,5.79,5.43ZM226.23,306.29c2.13-.02,2.79-.61,2.79-2.93s-.66-2.91-2.79-2.91l-2.98.02v5.82h2.98Z"/>
  <path d="M237.47,310.25l-1.39,4.77h-3.13l5.06-16.06c.15-.51.59-.81,1.1-.81h2.98c.51,0,.95.29,1.1.81l5.06,16.06h-3.13l-1.39-4.77h-6.26ZM241.31,301.92c-.12-.46-.29-.98-.37-1.44h-.66l-.39,1.44-1.69,5.82h4.79l-1.69-5.82Z"/>
  <path d="M261.33,298.42l-.2,2.18c-1.39-.05-3.35-.1-5.01-.1-2.05,0-2.81.12-2.81,1.93,0,1.49.56,1.83,1.88,2.25l3.25,1c2.66.86,3.47,2.44,3.47,4.91,0,3.84-1.66,4.72-5.99,4.72-1.03,0-3.03-.05-5.48-.54l.2-2.25c3.2.07,4.18.1,5.35.1,2.2,0,2.81-.32,2.81-2.05,0-1.54-.56-1.83-1.78-2.22l-3.4-1.08c-2.49-.81-3.4-2.37-3.4-4.89,0-3.86,1.76-4.52,5.79-4.52,1.61,0,3.5.1,5.3.56Z"/>
  <path d="M275.95,298.42l-.2,2.18c-1.39-.05-3.35-.1-5.01-.1-2.05,0-2.81.12-2.81,1.93,0,1.49.56,1.83,1.88,2.25l3.25,1c2.66.86,3.47,2.44,3.47,4.91,0,3.84-1.66,4.72-5.99,4.72-1.03,0-3.03-.05-5.48-.54l.2-2.25c3.2.07,4.18.1,5.35.1,2.2,0,2.81-.32,2.81-2.05,0-1.54-.56-1.83-1.78-2.22l-3.4-1.08c-2.49-.81-3.4-2.37-3.4-4.89,0-3.86,1.76-4.52,5.79-4.52,1.61,0,3.5.1,5.3.56Z"/>
  <path d="M282.94,310.25l-1.39,4.77h-3.13l5.06-16.06c.15-.51.59-.81,1.1-.81h2.98c.51,0,.95.29,1.1.81l5.06,16.06h-3.13l-1.39-4.77h-6.26ZM286.78,301.92c-.12-.46-.29-.98-.37-1.44h-.66l-.39,1.44-1.69,5.82h4.79l-1.69-5.82Z"/>
  <path d="M309.6,306.59c0,6.6-1.83,8.65-6.89,8.65-2.44,0-4.45-.1-6.31-.22v-16.87c1.86-.12,3.84-.22,6.31-.22,5.06,0,6.89,2.05,6.89,8.65ZM306.38,306.59c0-4.64-.88-6.11-3.67-6.11-1.25,0-2.27.02-3.25.02v12.12c.95.02,2.03.05,3.25.05,2.79,0,3.67-1.44,3.67-6.09Z"/>
  <path d="M326.81,306.59c0,6.7-1.81,8.75-6.97,8.75s-6.94-2.05-6.94-8.75,1.81-8.75,6.94-8.75,6.97,2.05,6.97,8.75ZM316.13,306.59c0,4.69.88,6.14,3.72,6.14s3.74-1.44,3.74-6.14-.88-6.14-3.74-6.14-3.72,1.44-3.72,6.14Z"/>
  <rect x="18.64" y="26.2" width="8.08" height="323.14"/>
  <path class="cls-1" d="M197.72,73.61c-.02-.38,0-.76.12-1.14l.35-1.2c.21-.75.99-1.14,2.09-1.69l1.05-.52c.98-.49,2.2-.64,3.05-.68l8.92-.4c.43-.02,1.16.44,1.35.79l.21-.91c1.12-4.9,4.36-9.85,8.35-9.85h1.02c7.55,0,9.7,13.82,10.34,21.77l.6,7.5c.79,9.87-.37,23.55-1.61,29.65l-1.14,5.62c-.61,3-3.38,11.31-8.77,11.31h-1.41c-6.2,0-8.81-9.43-9.57-15.93l-.27-2.28h-1.47c-.96,0-1.67-.92-2.01-2.07l-.54-1.81h-.55c-.89,2.68-2.59,2.19-3.13,1.2l-.33-.6c-1.27-2.32-2.1-7.37-2.02-8.49l.07-.88h-.38c-.31.49-.68.84-1.15.84h-6.27l-.52,6.9c-.89,1.76-.41,6.08-1.14,8.74-.29,1.05,1.36,2.9,1.36,3.71v1.76c-.68.71-.95,1.61-.77,2.52l.77,3.9c.25,1.28,2.01,2.33,3.19,2.89l1.66.78c.7.33,1.22,1.05,1.21,1.99l-.13,9.05c.28.48.33,1.03-.02,1.5l-.2,13.48c0,.51.21.85-.62,1.37-.76.47-1.53,1.5-1.5,2.38l.26,8.09c.03.89-.63,2.37-2.76,2.7-3.68.57-7.36.81-11.05.75l-16.21-.26c-6.82-.11-21.08-1.23-26.88-2.35-2.04-.4-2.85-1.08-1.81-4.45l7.84-25.39c.84-2.73,2.48-8.75,3.08-11.84l1.2-6.18c.78-4.02-.34-7.51-2.39-10.27-2.54-3.43-7.37-5.35-10.65-5.77l-11.15-1.45c-5.35-.69-18.14-1.54-27.24-1.54h-5.55c-4.29,0-15.14.56-18.93,1.16-1.92.3-3.32.94-4.52,1.62-4.99,2.8-5.6,6.87-7.81,14.84l-1.24,4.46c-1.16,4.17-5.11,11.23-6.55,11.23h-1.28c-.17.73-.76,1.27-1.46,1.27s-1.29-.54-1.46-1.27h-1.19v5.91h1.86c.23,0,.42.19.42.42v.12h1.68c.31-.93,1.53-1.01,2.28-1.01.86,0,1.21.6,1.21,1.48s-.35,1.48-1.21,1.48c-.59,0-1.49-.05-1.99-.53h-1.97v.12c0,.23-.19.42-.42.42h-1.87c-.02.15-.19.63-.43.71v12.64c.29.03.51.42.51.89s-.23.85-.51.89v1.91c0,.35-.29.64-.64.64h-.93l-.36,4.14-.36-4.14h-.51c-.35,0-.64-.29-.64-.64v-1.16h-.35c-.27,0-.52-.14-.72-.37h-1.17c-.07,1.06-.22,1.79-.4,1.79h-.74c-.65,0-1.18-1.44-1.18-3.22s.53-3.22,1.18-3.22h.74c.19,0,.35.83.41,2.02h.99c.22-.36.53-.59.88-.59h.35v-11.24c-.56-.14-.97-.64-.97-1.24v-1.02c-.84-.01-1.51-.17-1.51-.36s.68-.34,1.53-.35c.08-.5.47-.91.96-1.03v-2.07c-.54-.89-1.26-1.9-1.26-2.46v-.85h-1.37c0,1.2-.25,2.17-.55,2.17s-.55-.76-.55-1.97v-19.52c-.23-.15-.44-.55-.61-1.14h-.73c-.22.76-.5,1.21-.8,1.21-.17,0-.33-.14-.48-.4h-2.83c-.2,0-.39-.17-.56-.47h-.56c-.4,0-.76-.6-1-1.56h-.84c-.14,0-.27-.2-.38-.54h-.83c-.22.34-.48.54-.76.54h-.71c-.54,0-1.01-.74-1.22-1.79-.45-.16-.78-.63-.78-1.18s.33-1.03.78-1.18c.2-1.06.67-1.8,1.22-1.8h.71c.28,0,.54.2.76.54h.83c.11-.34.24-.54.38-.54h.84c.24-.95.6-1.56,1-1.56h.56c.17-.3.36-.47.56-.47h2.83c.15-.25.31-.4.48-.4.3,0,.58.45.8,1.21h.73c.17-.59.38-.99.61-1.14v-27.64c-.43-.09-.79-.49-.97-1.04l-3.46-1.72c-.93-.46-1.25.58-2.36.67-.04,0-.09,0-.14,0-.87,0-1.58-.69-1.58-1.57s.7-1.57,1.56-1.57c.36,0,.66.15.97.33l4.88,2.74c.08-.83.53-1.48,1.09-1.6v-6.69c0-.41.34-.75.75-.75h3.46v-7.58c-.39-.22-.9-.54-.9-1.09v-1.4c0-.49,1.6-.66,1.98-.66h2.7c.32,0,1.98.26,1.98.66v1.4c0,.56-.52.87-.9,1.09v8.71h3.48c2.28,0,2.88,1.94,4.97,3.03,1.46.76,3.98,1.34,6.25,2.36l7.5,3.37c4.81,2.16,9.03,3.93,13.57,3.93h3.87c3.02,0,12.97-1.58,19.4-2.59l31.04-4.87c8.78-1.38,17.61-4.09,26.41-3.71v-20.05c0-.55.45-.99.99-.99s.99.45.99.99v20.04c5.01.46,8.97,1.21,12.46,2.78,2.71,1.22,3.76,2.81,6.51,3.27l3.14.52.05.47h2.92v-4.34c0-1.55.74-2.86,2.5-3.13M35.64,78.02c-.5,0-.91.41-.91.91s.41.91.91.91.91-.41.91-.91-.41-.91-.91-.91Z"/>
</svg>