<?xml version="1.0" encoding="UTF-8"?>
<svg id="Camada_1" data-name="Camada 1" xmlns="http://www.w3.org/2000/svg" viewBox="0 0 361.53 378.61">
  <defs>
    <style>
      .cls-1 {
        fill: #231f20;
      }

      .cls-2, .cls-3 {
        fill: #fff;
      }

      .cls-3, .cls-4 {
        fill-rule: evenodd;
      }

      .cls-4 {
        fill: #ed1c24;
      }
    </style>
  </defs>
  <path class="cls-4" d="M37.62,27.72h85.94c14.77,14.4,34.95,23.28,57.21,23.28s42.44-8.88,57.21-23.28h85.94v193.97c0,79.05-64.1,143.15-143.15,143.15S37.62,300.74,37.62,221.69V27.72Z"/>
  <path class="cls-3" d="M47.72,121.45v100.25c0,73.47,59.57,133.05,133.05,133.05s133.05-59.57,133.05-133.05v-100.25H47.72Z"/>
  <path class="cls-4" d="M192.68,302.21c38.61-5.76,68.23-39.04,68.23-79.26v-90.65h-23.83v90.65c0,27.02-19.01,49.58-44.39,55.04v24.21ZM274.68,132.31h23.88v90.65c0,60.58-45.97,111.16-105.88,117.19v-24.03c46.57-5.89,82-45.67,82-93.16v-90.65Z"/>
  <path class="cls-4" d="M168.17,302.21c-38.61-5.76-68.23-39.04-68.23-79.26v-90.65h23.83v90.65c0,27.02,19.01,49.58,44.39,55.04v24.21ZM86.17,132.31h-23.88v90.65c0,60.58,45.97,111.16,105.88,117.19v-24.03c-46.57-5.89-82-45.67-82-93.16v-90.65Z"/>
  <path class="cls-1" d="M225.29,140.72c0-.28.14-.42.43-.42h2.43c.28,0,.43.14.43.42v4.75c0,.22-.09.39-.26.51-.66.46-1.41.82-2.26,1.07-.85.25-1.72.38-2.61.38-1.43,0-2.74-.35-3.93-1.05-1.18-.69-2.12-1.64-2.8-2.82-.68-1.19-1.02-2.49-1.02-3.9s.34-2.72,1.02-3.9c.69-1.18,1.62-2.12,2.8-2.8,1.18-.69,2.49-1.03,3.93-1.03.88,0,1.72.14,2.53.41.8.27,1.53.66,2.19,1.15.12.1.18.2.18.31,0,.09-.04.19-.12.29l-1.5,1.96c-.1.12-.2.18-.32.18-.09,0-.18-.03-.28-.1-.39-.27-.82-.48-1.28-.65-.46-.16-.93-.24-1.4-.24-.75,0-1.46.2-2.11.59-.65.39-1.18.93-1.57,1.61-.39.68-.59,1.42-.59,2.24s.2,1.58.59,2.27c.4.7.92,1.25,1.57,1.65.65.41,1.36.61,2.11.61.67,0,1.29-.11,1.86-.34v-3.16ZM203.68,146.75c0,.28-.14.43-.43.43h-2.51c-.28,0-.43-.14-.43-.43v-14.09c0-.28.14-.43.43-.43h2.83c.23,0,.4.09.51.28l5.82,8.83v-8.68c0-.28.14-.43.43-.43h2.51c.28,0,.43.14.43.43v14.09c0,.28-.14.43-.43.43h-2.52c-.22,0-.39-.09-.51-.28l-6.13-9.23v9.08ZM197.11,146.75c0,.28-.14.43-.43.43h-2.6c-.28,0-.42-.14-.42-.43v-14.09c0-.28.14-.43.42-.43h2.6c.28,0,.43.14.43.43v14.09ZM183.56,143.87c.79,0,1.51-.18,2.15-.53.64-.35,1.14-.85,1.51-1.48.36-.63.55-1.35.55-2.16s-.18-1.51-.55-2.14c-.37-.63-.87-1.13-1.51-1.48-.64-.35-1.37-.53-2.17-.53h-2.21v8.33h2.24ZM178.3,147.18c-.28,0-.42-.14-.42-.43v-14.09c0-.28.14-.43.42-.43h5.11c1.44,0,2.76.33,3.96.98,1.2.65,2.15,1.55,2.84,2.69.7,1.14,1.05,2.41,1.05,3.79s-.35,2.66-1.04,3.8c-.7,1.14-1.64,2.04-2.83,2.7-1.19.66-2.51.98-3.94.98h-5.14ZM167.78,143.87c.79,0,1.51-.18,2.15-.53.64-.35,1.14-.85,1.51-1.48.36-.63.55-1.35.55-2.16s-.18-1.51-.55-2.14c-.37-.63-.87-1.13-1.51-1.48-.64-.35-1.36-.53-2.17-.53h-2.21v8.33h2.24ZM162.52,147.18c-.28,0-.43-.14-.43-.43v-14.09c0-.28.14-.43.43-.43h5.11c1.44,0,2.76.33,3.96.98,1.2.65,2.15,1.55,2.84,2.69.7,1.14,1.05,2.41,1.05,3.79s-.35,2.66-1.04,3.8c-.7,1.14-1.64,2.04-2.84,2.7-1.19.66-2.51.98-3.94.98h-5.14ZM138.99,139.34c.39,0,.74-.09,1.05-.28.31-.18.55-.44.72-.75.17-.31.26-.66.26-1.04,0-.42-.09-.78-.27-1.08-.17-.3-.42-.53-.72-.68-.3-.15-.64-.23-1.02-.23h-2.61v4.05h2.57ZM150.3,143.1l3.35-5.8c-.21-.04-.42-.06-.64-.06-.64,0-1.23.16-1.76.47-.53.31-.96.74-1.28,1.29-.32.55-.47,1.15-.47,1.82s.16,1.27.47,1.81c.1.17.21.33.33.47ZM155.71,138.52l-3.34,5.79c.21.04.42.05.63.05.64,0,1.22-.15,1.76-.47.53-.31.96-.74,1.28-1.28.32-.54.47-1.14.47-1.81s-.15-1.27-.47-1.82c-.1-.17-.21-.33-.33-.47ZM156.44,132.47l2.08,1.2-1.16,2.01c.6.5,1.11,1.09,1.51,1.78.61,1.03.91,2.15.91,3.38s-.31,2.33-.92,3.35c-.61,1.02-1.43,1.82-2.48,2.42-1.04.59-2.18.89-3.42.89-.78,0-1.53-.12-2.23-.36l-1.17,2.03-2.08-1.2,1.16-2c-.6-.49-1.11-1.08-1.51-1.77-.6-1.02-.9-2.13-.9-3.35s.3-2.35.91-3.38c.61-1.03,1.43-1.84,2.46-2.44,1.03-.6,2.17-.89,3.39-.89.8,0,1.55.12,2.27.37l1.17-2.03ZM133.39,147.18c-.28,0-.42-.14-.42-.43v-14.09c0-.28.14-.43.42-.43h5.91c1.02,0,1.93.21,2.71.64.79.43,1.4,1.02,1.84,1.78.44.76.66,1.63.66,2.62s-.2,1.79-.61,2.48c-.41.69-.98,1.24-1.71,1.66l2.62,5.27c.04.09.06.16.06.22,0,.09-.03.15-.1.2-.07.05-.16.08-.27.08h-2.98c-.23,0-.4-.11-.5-.32l-2.13-4.56c-.13,0-.32.01-.56.01h-1.93v4.44c0,.28-.14.43-.43.43h-2.59Z"/>
  <path class="cls-1" d="M193.59,168.02c.06.09.09.17.09.26,0,.08-.03.14-.1.18-.06.05-.15.07-.27.07h-2.87c-.22,0-.4-.09-.51-.28l-3.41-4.99-1.64,1.73v3.11c0,.28-.14.43-.43.43h-2.41c-.28,0-.43-.14-.43-.43v-15.77c0-.28.14-.43.43-.43h2.41c.29,0,.43.14.43.43v8.43l4.19-4.84c.14-.16.31-.23.52-.23h3.27c.12,0,.2.02.27.07.07.04.1.1.1.17,0,.08-.05.17-.15.29l-4.35,4.65,4.84,7.16ZM173.8,168.77c-1.13,0-2.2-.21-3.2-.65-1.01-.43-1.88-1.06-2.61-1.88-.09-.1-.13-.19-.13-.29,0-.11.05-.21.16-.32l1.64-1.58c.09-.09.19-.14.29-.14.12,0,.22.05.31.16.47.49,1.01.86,1.62,1.11.6.25,1.22.38,1.86.38.68,0,1.2-.13,1.57-.38.37-.25.55-.6.55-1.04,0-.3-.09-.55-.25-.76-.17-.21-.45-.41-.86-.59-.41-.18-.99-.39-1.75-.61-1.23-.36-2.3-.89-3.21-1.62-.91-.72-1.36-1.73-1.36-3.02,0-.77.2-1.48.59-2.13.4-.65.99-1.16,1.79-1.55.79-.39,1.76-.58,2.9-.58.96,0,1.89.17,2.77.51.88.35,1.67.81,2.37,1.4.11.08.16.18.16.3,0,.1-.04.2-.12.3l-1.5,1.7c-.09.12-.19.17-.31.17-.09,0-.19-.04-.29-.12-.41-.32-.88-.59-1.41-.8-.53-.22-1.05-.33-1.56-.33-.58,0-1.04.1-1.36.29-.33.19-.49.48-.49.86,0,.3.1.54.29.74.19.19.45.36.76.5.32.14.79.31,1.42.51.03,0,.12.04.27.09,1.02.34,1.86.71,2.53,1.09.67.39,1.19.87,1.57,1.45.38.57.56,1.28.56,2.11,0,.94-.23,1.77-.69,2.48-.46.71-1.11,1.26-1.95,1.64-.84.38-1.8.57-2.89.57Z"/>
  <g>
    <path class="cls-2" d="M72.64,108.06c-3.31-1.85-5.83-4.41-7.56-7.68-1.74-3.27-2.61-7-2.61-11.18v-29.6c0-.98.49-1.47,1.47-1.47h8.96c.98,0,1.47.49,1.47,1.47v28.02c0,2.42.4,4.55,1.21,6.37.81,1.82,1.97,3.23,3.49,4.22,1.52.99,3.32,1.49,5.4,1.49s3.89-.5,5.42-1.49c1.53-.99,2.7-2.39,3.53-4.2.82-1.81,1.23-3.94,1.23-6.39v-28.02c0-.98.49-1.47,1.47-1.47h8.96c.98,0,1.47.49,1.47,1.47v29.6c0,4.19-.87,7.91-2.61,11.18-1.74,3.27-4.27,5.83-7.6,7.68-3.33,1.85-7.28,2.77-11.86,2.77s-8.52-.92-11.83-2.77Z"/>
    <path class="cls-2" d="M126.66,109.73h-8.67c-.98,0-1.47-.49-1.47-1.47v-48.66c0-.98.49-1.47,1.47-1.47h9.77c.78,0,1.37.32,1.76.96l20.09,30.48v-29.97c0-.98.49-1.47,1.47-1.47h8.67c.98,0,1.47.49,1.47,1.47v48.66c0,.98-.49,1.47-1.47,1.47h-8.7c-.76,0-1.35-.32-1.76-.95l-21.15-31.88v31.36c0,.98-.49,1.47-1.47,1.47Z"/>
    <path class="cls-2" d="M182.73,109.73h-8.96c-.98,0-1.47-.49-1.47-1.47v-48.66c0-.98.49-1.47,1.47-1.47h8.96c.98,0,1.47.49,1.47,1.47v48.66c0,.98-.49,1.47-1.47,1.47Z"/>
    <path class="cls-2" d="M205.76,107.07c-4.09-2.39-7.31-5.63-9.68-9.73-2.36-4.1-3.54-8.6-3.54-13.5s1.18-9.38,3.53-13.46c2.35-4.08,5.57-7.3,9.66-9.66,4.09-2.36,8.62-3.54,13.59-3.54s9.46,1.18,13.55,3.54c4.09,2.36,7.31,5.58,9.68,9.66,2.36,4.08,3.54,8.56,3.54,13.46s-1.18,9.4-3.54,13.5c-2.36,4.1-5.59,7.34-9.68,9.73-4.09,2.39-8.61,3.58-13.55,3.58s-9.46-1.19-13.55-3.58ZM226.62,97.21c2.25-1.35,4.05-3.19,5.38-5.55,1.33-2.35,2-4.94,2-7.79s-.67-5.39-2.02-7.73c-1.35-2.34-3.15-4.18-5.4-5.53-2.25-1.35-4.68-2.02-7.27-2.02s-5.06.67-7.31,2.02c-2.25,1.35-4.05,3.19-5.38,5.53-1.33,2.34-2,4.92-2,7.73s.67,5.43,2.02,7.77c1.35,2.34,3.15,4.19,5.4,5.54,2.25,1.36,4.68,2.04,7.27,2.04s5.06-.67,7.31-2.02Z"/>
    <path class="cls-2" d="M264.51,109.73h-8.67c-.98,0-1.47-.49-1.47-1.47v-48.66c0-.98.49-1.47,1.47-1.47h9.77c.78,0,1.37.32,1.76.96l20.09,30.48v-29.97c0-.98.49-1.47,1.47-1.47h8.67c.98,0,1.47.49,1.47,1.47v48.66c0,.98-.49,1.47-1.47,1.47h-8.7c-.76,0-1.35-.32-1.76-.95l-21.15-31.88v31.36c0,.98-.49,1.47-1.47,1.47Z"/>
  </g>
</svg>