<?xml version="1.0" encoding="UTF-8"?>
<svg id="Camada_1" data-name="Camada 1" xmlns="http://www.w3.org/2000/svg" viewBox="0 0 361.53 378.61">
  <path d="M51.96,108.12h41.84c2.48,0,3.98,1.19,4.63,3.56l25.49,91.93,25.36-91.93c.66-2.38,2.19-3.56,4.63-3.56h27.93c1.27,0,2.33.31,3.13.98.8.67,1.06,1.68,1.4,2.9l23.14,83.33v-83.01c0-2.81,1.4-4.21,4.21-4.21h29.47c2.81,0,4.21,1.4,4.21,4.21v53.78l44.74-55.58c1.32-1.64,3.04-2.42,5.16-2.42h36.32c1.11,0,1.99.2,2.61.62.65.43.98,1.01.98,1.79,0,.85-.43,1.75-1.27,2.74l-47.81,56.33,54.24,81.36c.56.84.82,1.7.82,2.55,0,.75-.3,1.36-.95,1.83-.63.45-1.5.69-2.61.69h-35.8c-2.25,0-3.89-.93-5.06-2.74l-35.15-54.73-16.22,19.06v34.2c0,2.81-1.4,4.21-4.21,4.21h-20.91c-.35.06-.73.1-1.13.1h-29.89c-2.58,0-3.71-1.41-4.41-3.98l-22.5-83.19-22.75,83.48c-.65,2.37-2.19,3.59-4.63,3.59h-32.71c-2.44,0-3.99-1.21-4.63-3.59l-26.67-97.83v41.89c0,6.81-5.58,12.38-12.38,12.38h-2.26v15.65h4.05v-2.57c0-.8.65-1.45,1.45-1.45h.51c.8,0,1.45.66,1.45,1.45v7.61c0,.8-.66,1.45-1.45,1.45h-.51c-.8,0-1.45-.65-1.45-1.45v-2.57h-4.33c-.66,1.94-2.44,3.39-4.55,3.56v13.8c0,.8-.05,1.62-.16,2.41l-.64,4.73c-.04.32-.21.96-.53.96h-.09c-.33,0-.49-.63-.53-.96l-.64-4.73c-.11-.8-.16-1.61-.16-2.41v-4.15h-3.05v1.62c0,1.28-1.05,2.34-2.34,2.34h-.82c-1.28,0-2.34-1.06-2.34-2.34v-5.72c0-1.28,1.06-2.34,2.34-2.34h.82c1.28,0,2.34,1.05,2.34,2.34v1.62h3.05v-7.18c-2.67-.25-4.78-2.51-4.78-5.24v-16.44h-.4c-6.8,0-12.38-5.57-12.38-12.38v-1.96h-.73c-.52,0-1.03-.44-1.48-1.24h-1.49c-1.05,0-2-1.6-2.64-4.12h-2.21c-.37,0-.72-.53-1-1.43h-2.2c-.57.9-1.27,1.43-2.01,1.43h-1.89c-1.43,0-2.68-1.95-3.21-4.75-1.2-.42-2.07-1.66-2.07-3.13s.87-2.72,2.07-3.13c.54-2.79,1.77-4.75,3.21-4.75h1.89c.75,0,1.44.53,2.01,1.43h2.2c.28-.9.63-1.43,1-1.43h2.21c.64-2.53,1.59-4.12,2.64-4.12h1.49c.45-.79.95-1.24,1.48-1.24h.73v-39.2c0-8.32,2.75-20.74,18.21-20.74h.56Z"/>
  <path d="M327,261c-.15.1-.32.15-.5.15-.29,0-.51-.17-.67-.5l-.5-.93c-.09-.16-.13-.31-.13-.48,0-.29.15-.52.45-.69l3.76-2.25c.33-.19.62-.28.88-.28.29,0,.58.09.86.28l3.72,2.25c.3.17.46.4.46.69,0,.16-.05.31-.13.48l-.48.93c-.17.33-.4.5-.69.5-.17,0-.34-.05-.5-.15l-3.26-1.75-3.29,1.75ZM341.45,292.62c0,.58-.29.86-.86.86h-19.83c-.58,0-.86-.29-.86-.86v-28.62c0-.58.29-.86.86-.86h19.53c.58,0,.86.29.86.86v1.94c0,.58-.29.86-.86.86h-16.5v8.92h13.26c.58,0,.86.29.86.86v1.95c0,.58-.29.86-.86.86h-13.26v10.41h16.8c.58,0,.86.29.86.86v1.94ZM290.6,292.62c0,.58-.29.86-.86.86h-2.16c-.58,0-.86-.29-.86-.86v-28.62c0-.58.29-.86.86-.86h2.16c.58,0,.86.29.86.86v28.62ZM260.78,292.62c0,.58-.29.86-.86.86h-16.83c-.58,0-.86-.29-.86-.86v-28.62c0-.58.29-.86.86-.86h2.16c.58,0,.86.29.86.86v25.81h13.8c.58,0,.86.29.86.86v1.94ZM215.01,292.62c0,.58-.29.86-.86.86h-19.83c-.58,0-.86-.29-.86-.86v-28.62c0-.58.29-.86.86-.86h19.53c.58,0,.86.29.86.86v1.94c0,.58-.29.86-.86.86h-16.5v8.92h13.26c.58,0,.86.29.86.86v1.95c0,.58-.29.86-.86.86h-13.26v10.41h16.8c.58,0,.86.29.86.86v1.94ZM157.61,292.62c0,.58-.29.86-.86.86h-2.16c-.58,0-.87-.29-.87-.86v-25.92h-8.83c-.58,0-.86-.29-.86-.86v-1.83c0-.58.29-.86.86-.86h21.55c.58,0,.86.29.86.86v1.83c0,.58-.29.86-.86.86h-8.83v25.92ZM117.05,283.09l-5.68-14.7-.19-.61-.19.61-5.71,14.7h11.77ZM124.7,292.49c.06.13.09.26.09.41,0,.19-.07.33-.19.43-.13.1-.31.15-.56.15h-2.22c-.49,0-.82-.22-.99-.67l-2.4-6.15h-14.47l-2.38,6.15c-.17.45-.5.67-.99.67h-2.22c-.25,0-.44-.05-.56-.16-.13-.11-.19-.25-.19-.44,0-.12.02-.25.06-.39l11.5-28.71c.17-.44.51-.66,1.01-.66h2.06c.5,0,.84.22,1.01.66l11.47,28.71Z"/>
</svg>