<?xml version="1.0" encoding="UTF-8"?>
<svg id="Camada_1" data-name="Camada 1" xmlns="http://www.w3.org/2000/svg" viewBox="0 0 739.06 378.61">
  <defs>
    <style>
      .cls-1 {
        fill-rule: evenodd;
      }
    </style>
  </defs>
  <path d="M350.35,159.24v-33.66c0-1.31.87-2.19,2.19-2.19h9.18c1.31,0,2.19.87,2.19,2.19v31.21c0,12.68,5.16,12.06,13.81,12.06h12.5c1.31,0,2.27.87,2.27,2.19v7.78c0,1.4-.96,2.27-2.27,2.27h-14.69c-16.08,0-25.18-5.33-25.18-21.85Z"/>
  <path d="M398.33,178.82v-53.24c0-1.31.87-2.19,2.19-2.19h9.18c1.31,0,2.19.87,2.19,2.19v53.24c0,1.4-.87,2.27-2.19,2.27h-9.18c-1.31,0-2.19-.87-2.19-2.27Z"/>
  <path d="M417.98,126.02c0-1.57.87-2.62,2.27-2.62h9.09c1.14,0,2.27.87,2.27,2.19,0,30.77,10.05,44.32,15.56,44.32,5.16,0,14.25-13.55,14.25-44.32,0-1.31,1.14-2.19,2.27-2.19h8.65c1.4,0,2.27,1.05,2.27,2.62,0,35.49-12.68,56.21-28.06,56.21s-28.59-20.72-28.59-56.21Z"/>
  <path d="M480.74,178.82v-53.24c0-1.31.87-2.19,2.19-2.19h9.18c1.31,0,2.19.87,2.19,2.19v53.24c0,1.4-.87,2.27-2.19,2.27h-9.18c-1.31,0-2.19-.87-2.19-2.27Z"/>
  <path d="M529.15,175.68c-5.51-4.72-10.84-12.33-15.3-23.08v26.23c0,1.4-.87,2.27-2.27,2.27h-7.78c-1.31,0-2.19-.87-2.19-2.27v-53.15c0-1.4.87-2.27,2.19-2.27h10.75c.87,0,1.49.44,1.75,1.31,1.4,4.55,5.25,12.68,10.05,21.42,7.34,13.38,13.81,20.72,17.57,20.72,2.27,0,3.85-2.01,3.85-6.29,0-9.97-.87-20.54-2.45-34.36-.17-1.57.61-2.88,2.45-2.88l8.22.09c1.31,0,2.1,1.4,2.19,2.45,1.05,10.58,2.01,23.6,2.01,33.83,0,17.66-7.78,22.29-16.26,22.29-4.72,0-9.88-2.01-14.77-6.29Z"/>
  <path d="M566.3,152.34c0-16.7,12.24-30.51,29.63-30.51,11.01,0,17.4,3.67,22.2,8.48.87.87.96,2.01.17,2.97l-4.9,5.51c-.96,1.14-2.27,1.05-3.41,0-2.71-2.45-7.43-4.72-12.94-4.72-8.74,0-17.22,7.34-17.22,18.27s7.34,17.57,15.82,17.57,12.68-5.42,11.89-11.1h-11.45c-1.31,0-2.19-.87-2.19-2.27v-7.78c0-1.31.87-2.19,2.19-2.19l22.64.17c1.66,0,2.36,1.14,2.54,2.27.26,2.01.35,4.02.35,5.86.17,18.36-10.84,27.36-25.96,27.36s-29.37-10.93-29.37-29.9Z"/>
  <path d="M351.05,235.49v-53.24c0-1.31.87-2.19,2.19-2.19h14.77c1.31,0,2.19.61,3.06,1.92,1.14,1.57,9.35,16.35,14.51,29.46,4.9-13.11,13.11-27.89,14.25-29.46.87-1.31,1.84-1.92,3.15-1.92h14.69c1.31,0,2.27.87,2.27,2.19v53.24c0,1.4-.96,2.27-2.27,2.27h-9.09c-1.4,0-2.27-.87-2.27-2.27v-39.43c-5.33,7.34-11.8,21.42-14.69,32.78-.26.87-1.14,1.57-2.01,1.57h-9.62c-.87,0-1.75-.7-2.01-1.57-3.32-13.11-9.79-25.18-14.69-32.08v38.73c0,1.4-.87,2.27-2.27,2.27h-7.78c-1.31,0-2.19-.87-2.19-2.27Z"/>
  <path d="M424.22,208.39c-.44-15.65,9.18-28.32,24.3-28.32h18.53c1.31,0,2.19.87,2.19,2.19v7.78c0,1.4-.88,2.27-2.19,2.27h-16.78c-6.91,0-11.36,2.54-12.41,10.49h23.17c1.31,0,2.19.87,2.19,2.19v7.78c0,1.4-.87,2.27-2.19,2.27h-23.08c1.22,7.69,5.77,10.49,12.85,10.49h16.26c1.4,0,2.27.87,2.27,2.19v7.78c0,1.4-.87,2.27-2.27,2.27h-18.79c-14.86,0-23.52-11.45-24.04-29.37Z"/>
  <path d="M473.27,235.49v-53.24c0-1.31.87-2.19,2.19-2.19h14.77c1.31,0,2.19.61,3.06,1.92,1.14,1.57,9.35,16.35,14.51,29.46,4.9-13.11,13.11-27.89,14.25-29.46.87-1.31,1.84-1.92,3.15-1.92h14.69c1.31,0,2.27.87,2.27,2.19v53.24c0,1.4-.96,2.27-2.27,2.27h-9.09c-1.4,0-2.27-.87-2.27-2.27v-39.43c-5.33,7.34-11.8,21.42-14.69,32.78-.26.87-1.14,1.57-2.01,1.57h-9.62c-.87,0-1.75-.7-2.01-1.57-3.32-13.11-9.79-25.18-14.69-32.08v38.73c0,1.4-.87,2.27-2.27,2.27h-7.78c-1.31,0-2.19-.87-2.19-2.27Z"/>
  <path d="M546.09,208.48c0-16.43,12.24-29.98,29.37-29.98,18.36,0,30.07,12.76,30.07,29.63s-11.98,30.77-29.72,30.77-29.72-13.29-29.72-30.42ZM591.99,208.48c0-10.84-7.69-17.75-16.17-17.75s-16.17,6.73-16.17,17.4c0,11.36,6.64,18.45,15.82,18.45s16.52-6.91,16.52-18.1Z"/>
  <path d="M659.39,228.58v6.91c0,1.4-.87,2.27-2.27,2.27-11.45,0-24.56-3.85-28.41-16.43-1.84-.09-3.76-.26-5.68-.44v14.6c0,1.4-.87,2.27-2.19,2.27h-9.18c-1.31,0-2.19-.87-2.19-2.27v-53.24c0-1.31.87-2.19,2.19-2.19h26.14c15.56,0,23.6,9.97,23.6,20.28s-5.68,17.66-18.1,20.11c1.22,4.2,6.38,5.94,13.81,5.94,1.4,0,2.27,1.05,2.27,2.19ZM623.03,209.09c2.97.26,5.68.35,8.04.35,12.33,0,16.96-2.97,16.96-9.09,0-4.02-3.32-8.04-10.23-8.04h-14.77v16.78Z"/>
  <path d="M696.64,219.05v16.43c0,1.4-.88,2.27-2.27,2.27h-9.09c-1.4,0-2.27-.87-2.27-2.27v-16.17c-12.41-4.02-20.02-19.67-20.02-37.06,0-1.31.87-2.19,2.19-2.19h9.18c1.31,0,2.19.87,2.19,2.19,0,11.19,3.41,25.88,12.94,25.88s13.2-16.08,13.2-25.88c0-1.31.87-2.19,2.19-2.19h8.48c1.31,0,2.27.87,2.27,2.19,0,17.31-7.52,32.34-18.97,36.8Z"/>
  <path d="M371.94,248.99c.98,0,1.47.52,1.5,1.5l.85,19.57h-3.76l-.7-17.98h-.58l-3.63,14.01c-.21.82-.73,1.28-1.59,1.28h-2.93c-.89,0-1.4-.46-1.62-1.28l-3.69-14.01h-.52l-.67,17.98h-3.73l.79-19.57c.03-.98.52-1.5,1.5-1.5h3.97c.85,0,1.34.43,1.56,1.28l2.99,11.42c.27.98.43,1.89.64,2.87h.46c.18-.98.37-1.89.64-2.9l2.99-11.39c.21-.85.73-1.28,1.59-1.28h3.94Z"/>
  <path d="M393.03,269.88c-2.78.24-6.2.24-9.28.24-2.78,0-4.49-1.53-4.52-4v-13.19c.03-2.47,1.77-4,4.52-4,3.08,0,6.5,0,9.28.24l-.18,2.93h-8.24c-1.1,0-1.53.46-1.53,1.77v3.69h8.64v2.93h-8.64v4.7c0,1.31.43,1.77,1.53,1.77h8.24l.18,2.9Z"/>
  <path d="M418.28,248.99c.98,0,1.47.52,1.5,1.5l.85,19.57h-3.76l-.7-17.98h-.58l-3.63,14.01c-.21.82-.73,1.28-1.59,1.28h-2.93c-.89,0-1.4-.46-1.62-1.28l-3.69-14.01h-.52l-.67,17.98h-3.73l.79-19.57c.03-.98.52-1.5,1.5-1.5h3.97c.85,0,1.34.43,1.56,1.28l2.99,11.42c.27.98.43,1.89.64,2.87h.46c.18-.98.37-1.89.64-2.9l2.99-11.39c.21-.85.73-1.28,1.59-1.28h3.94Z"/>
  <path d="M442.4,259.53c0,8.37-2.26,10.93-8.67,10.93s-8.7-2.56-8.7-10.93,2.29-10.93,8.7-10.93,8.67,2.56,8.67,10.93ZM429.06,259.53c0,5.86,1.1,7.66,4.67,7.66s4.67-1.8,4.67-7.66-1.13-7.66-4.67-7.66-4.67,1.8-4.67,7.66ZM432.51,247.95l-1.16-1.65,5.74-4.49,1.92,2.72-6.5,3.42Z"/>
  <path d="M458.92,270.06l-1.68-6.53c-.43-1.37-1.16-1.89-2.44-1.89h-3.79v8.43h-3.79v-21.07c2.41-.24,4.06-.27,7.66-.27,5.19,0,7.33,1.37,7.33,6.17,0,3.15-1.04,4.95-3.94,5.31v.15c1.04.24,2.35,1.1,2.81,3.11l1.89,6.6h-4.06ZM454.8,258.49c2.69-.03,3.54-.76,3.54-3.36s-.85-3.27-3.54-3.27h-3.79v6.63h3.79Z"/>
  <path d="M467.28,270.06v-21.07h3.82v21.07h-3.82Z"/>
  <path d="M480.1,264.1l-1.74,5.95h-3.91l6.32-20.06c.18-.64.73-1.01,1.37-1.01h3.73c.64,0,1.19.37,1.37,1.01l6.32,20.06h-3.91l-1.74-5.95h-7.82ZM484.9,253.69c-.15-.58-.37-1.22-.46-1.8h-.82l-.49,1.8-2.11,7.27h5.99l-2.11-7.27Z"/>
  <path d="M526.15,259.53c0,8.24-2.29,10.81-8.61,10.81-3.05,0-5.56-.12-7.88-.27v-21.07c2.32-.15,4.79-.27,7.88-.27,6.32,0,8.61,2.56,8.61,10.81ZM522.12,259.53c0-5.8-1.1-7.63-4.58-7.63-1.56,0-2.84.03-4.06.03v15.14c1.19.03,2.53.06,4.06.06,3.48,0,4.58-1.8,4.58-7.6Z"/>
  <path d="M547.64,259.53c0,8.37-2.26,10.93-8.7,10.93s-8.67-2.56-8.67-10.93,2.26-10.93,8.67-10.93,8.7,2.56,8.7,10.93ZM534.3,259.53c0,5.86,1.1,7.66,4.64,7.66s4.67-1.8,4.67-7.66-1.1-7.66-4.67-7.66-4.64,1.8-4.64,7.66Z"/>
  <path d="M580.77,255.49c0,5.34-1.77,6.78-6.75,6.78-1.53,0-3.02-.09-4.3-.24v8.03h-3.82v-21.07c2.41-.24,4.03-.27,7.63-.27,5.46,0,7.24,1.47,7.24,6.78ZM573.44,259.16c2.66-.03,3.48-.76,3.48-3.66s-.82-3.63-3.48-3.63l-3.72.03v7.27h3.72Z"/>
  <path d="M587.48,264.1l-1.74,5.95h-3.91l6.32-20.06c.18-.64.73-1.01,1.37-1.01h3.73c.64,0,1.19.37,1.37,1.01l6.32,20.06h-3.91l-1.74-5.95h-7.82ZM592.28,253.69c-.15-.58-.37-1.22-.46-1.8h-.82l-.49,1.8-2.11,7.27h5.99l-2.11-7.27Z"/>
  <path d="M617.28,249.33l-.24,2.72c-1.74-.06-4.18-.12-6.26-.12-2.57,0-3.51.15-3.51,2.41,0,1.86.7,2.29,2.35,2.81l4.06,1.25c3.33,1.07,4.34,3.05,4.34,6.14,0,4.79-2.08,5.89-7.48,5.89-1.28,0-3.79-.06-6.84-.67l.24-2.81c4,.09,5.22.12,6.69.12,2.75,0,3.51-.4,3.51-2.56,0-1.92-.7-2.29-2.23-2.78l-4.24-1.34c-3.11-1.01-4.24-2.96-4.24-6.11,0-4.82,2.2-5.65,7.24-5.65,2.01,0,4.37.12,6.62.7Z"/>
  <path d="M635.54,249.33l-.24,2.72c-1.74-.06-4.18-.12-6.26-.12-2.57,0-3.51.15-3.51,2.41,0,1.86.7,2.29,2.35,2.81l4.06,1.25c3.33,1.07,4.34,3.05,4.34,6.14,0,4.79-2.08,5.89-7.48,5.89-1.28,0-3.79-.06-6.84-.67l.24-2.81c4,.09,5.22.12,6.69.12,2.75,0,3.51-.4,3.51-2.56,0-1.92-.7-2.29-2.23-2.78l-4.24-1.34c-3.11-1.01-4.24-2.96-4.24-6.11,0-4.82,2.2-5.65,7.24-5.65,2.01,0,4.37.12,6.62.7Z"/>
  <path d="M644.27,264.1l-1.74,5.95h-3.91l6.32-20.06c.18-.64.73-1.01,1.37-1.01h3.73c.64,0,1.19.37,1.37,1.01l6.32,20.06h-3.91l-1.74-5.95h-7.82ZM649.06,253.69c-.15-.58-.37-1.22-.46-1.8h-.82l-.49,1.8-2.11,7.27h5.98l-2.11-7.27Z"/>
  <path d="M677.58,259.53c0,8.24-2.29,10.81-8.61,10.81-3.05,0-5.56-.12-7.88-.27v-21.07c2.32-.15,4.79-.27,7.88-.27,6.32,0,8.61,2.56,8.61,10.81ZM673.55,259.53c0-5.8-1.1-7.63-4.58-7.63-1.56,0-2.84.03-4.06.03v15.14c1.19.03,2.53.06,4.06.06,3.48,0,4.58-1.8,4.58-7.6Z"/>
  <path d="M699.07,259.53c0,8.37-2.26,10.93-8.7,10.93s-8.67-2.56-8.67-10.93,2.26-10.93,8.67-10.93,8.7,2.56,8.7,10.93ZM685.73,259.53c0,5.86,1.1,7.66,4.64,7.66s4.67-1.8,4.67-7.66-1.1-7.66-4.67-7.66-4.64,1.8-4.64,7.66Z"/>
  <rect x="314.15" y="65.68" width="10.09" height="247.26"/>
  <path class="cls-1" d="M228.88,133.8c-.02-.47.01-.95.15-1.42l.43-1.51c.27-.93,1.23-1.42,2.61-2.11l1.31-.66c1.22-.61,2.75-.8,3.81-.85l11.14-.5c.54-.02,1.45.54,1.68.99l.26-1.14c1.39-6.12,5.45-12.31,10.43-12.31h1.27c9.43,0,12.12,17.26,12.92,27.19l.75,9.36c.99,12.33-.46,29.41-2.01,37.04l-1.42,7.02c-.76,3.74-4.22,14.13-10.95,14.13h-1.76c-7.74,0-11-11.78-11.96-19.9l-.33-2.84h-1.84c-1.2,0-2.08-1.15-2.51-2.59l-.67-2.26h-.69c-1.11,3.35-3.24,2.73-3.91,1.51l-.41-.75c-1.58-2.89-2.63-9.2-2.52-10.61l.08-1.1h-.47c-.39.62-.85,1.04-1.44,1.04h-7.84l-.65,8.62c-1.11,2.19-.52,7.6-1.42,10.91-.36,1.31,1.7,3.62,1.7,4.64v2.2c-.85.89-1.18,2.02-.96,3.15l.97,4.87c.32,1.6,2.51,2.92,3.99,3.61l2.08.97c.88.41,1.53,1.31,1.51,2.49l-.17,11.31c.35.6.41,1.29-.03,1.87l-.25,16.84c0,.63.27,1.06-.77,1.72-.95.59-1.91,1.87-1.88,2.97l.33,10.1c.04,1.11-.79,2.96-3.45,3.37-4.59.71-9.19,1.02-13.8.94l-20.24-.33c-8.52-.14-26.33-1.53-33.57-2.94-2.54-.49-3.57-1.34-2.26-5.56l9.79-31.71c1.05-3.41,3.1-10.93,3.85-14.79l1.5-7.72c.98-5.02-.43-9.38-2.98-12.83-3.17-4.28-9.2-6.68-13.3-7.21l-13.93-1.81c-6.68-.87-22.66-1.93-34.02-1.93h-6.93c-5.36,0-18.91.7-23.65,1.45-2.4.38-4.15,1.18-5.65,2.02-6.23,3.5-6.99,8.58-9.76,18.54l-1.55,5.58c-1.45,5.21-6.38,14.02-8.18,14.02h-1.6c-.21.91-.94,1.59-1.82,1.59s-1.62-.67-1.82-1.59h-1.48v7.38h2.32c.29,0,.52.24.52.52v.15h2.09c.38-1.16,1.91-1.26,2.85-1.26,1.08,0,1.51.75,1.51,1.85s-.44,1.85-1.51,1.85c-.74,0-1.86-.06-2.48-.67h-2.46v.15c0,.29-.24.52-.52.52h-2.34c-.03.19-.23.79-.54.89v15.79c.36.04.64.52.64,1.11s-.28,1.07-.64,1.11v2.39c0,.44-.36.8-.8.8h-1.17l-.44,5.18-.44-5.18h-.63c-.44,0-.8-.36-.8-.8v-1.45h-.44c-.34,0-.65-.17-.9-.46h-1.46c-.09,1.33-.28,2.24-.5,2.24h-.92c-.81,0-1.48-1.8-1.48-4.02s.66-4.02,1.48-4.02h.92c.23,0,.43,1.04.51,2.52h1.24c.27-.45.66-.74,1.09-.74h.44v-14.04c-.7-.17-1.22-.8-1.22-1.55v-1.28c-1.05-.01-1.89-.21-1.89-.44s.85-.43,1.91-.44c.11-.63.58-1.13,1.19-1.29v-2.59c-.67-1.12-1.57-2.37-1.57-3.07v-1.06h-1.71c0,1.5-.31,2.71-.68,2.71s-.68-.95-.68-2.46v-24.38c-.28-.19-.54-.69-.76-1.43h-.91c-.27.94-.62,1.51-1,1.51-.21,0-.41-.18-.6-.49h-3.54c-.25,0-.49-.21-.7-.58h-.7c-.5,0-.94-.75-1.25-1.95h-1.04c-.18,0-.34-.25-.47-.67h-1.04c-.27.42-.6.67-.95.67h-.89c-.68,0-1.26-.92-1.52-2.24-.57-.2-.98-.78-.98-1.48s.41-1.28.98-1.48c.25-1.32.84-2.24,1.52-2.24h.89c.35,0,.68.25.95.67h1.04c.13-.42.3-.67.47-.67h1.04c.3-1.19.75-1.95,1.25-1.95h.7c.21-.37.45-.58.7-.58h3.54c.19-.32.39-.49.6-.49.38,0,.73.57,1,1.51h.91c.21-.73.47-1.24.76-1.43v-34.52c-.54-.11-.98-.61-1.21-1.3l-4.33-2.14c-1.16-.57-1.56.73-2.94.84-.06,0-.11,0-.17,0-1.09,0-1.97-.86-1.97-1.95s.88-1.95,1.95-1.95c.44,0,.83.19,1.21.41l6.09,3.42c.1-1.03.66-1.85,1.36-2v-8.35c0-.52.42-.94.94-.94h4.32v-9.47c-.48-.28-1.13-.67-1.13-1.36v-1.75c0-.61,2-.83,2.48-.83h3.37c.4,0,2.48.33,2.48.83v1.75c0,.7-.65,1.09-1.13,1.36v10.88h4.34c2.84,0,3.6,2.42,6.21,3.79,1.82.95,4.97,1.68,7.81,2.95l9.37,4.21c6.01,2.7,11.28,4.9,16.95,4.9h4.83c3.78,0,16.19-1.98,24.23-3.24l38.78-6.08c10.97-1.72,22-5.1,32.99-4.64v-25.04c0-.68.56-1.24,1.24-1.24s1.24.56,1.24,1.24v25.04c6.26.57,11.2,1.51,15.56,3.48,3.39,1.53,4.69,3.52,8.13,4.09l3.93.65.06.59h3.65v-5.42c0-1.94.92-3.57,3.12-3.91M26.45,139.32c-.63,0-1.14.51-1.14,1.14s.51,1.14,1.14,1.14,1.14-.51,1.14-1.14-.51-1.14-1.14-1.14Z"/>
</svg>