<?xml version="1.0" encoding="UTF-8"?>
<svg id="Camada_1" data-name="Camada 1" xmlns="http://www.w3.org/2000/svg" viewBox="0 0 361.53 378.61">
  <defs>
    <style>
      .cls-1 {
        fill: #ffcb05;
      }

      .cls-1, .cls-2 {
        fill-rule: evenodd;
      }

      .cls-2, .cls-3 {
        fill: #000001;
      }
    </style>
  </defs>
  <path class="cls-1" d="M111.31,202.18h33.91V66.75h-33.91c0,13.2-10.05,24.05-22.92,25.31v33.91h22.92v76.23Z"/>
  <path class="cls-2" d="M77.4,134.37c9.41,0,18.38,1.92,26.53,5.39v41.59c-6.18-7.85-15.76-12.9-26.53-12.9-18.63,0-33.73,15.1-33.73,33.73s15.1,33.73,33.73,33.73,33.73-15.1,33.73-33.73h.18v-58.74c20.27,11.73,33.91,33.64,33.91,58.74,0,37.45-30.36,67.81-67.81,67.81S9.59,239.63,9.59,202.18s30.36-67.81,67.81-67.81"/>
  <polygon class="cls-2" points="254.56 276.36 186.75 208.19 186.75 269.99 152.85 269.99 152.85 128.01 220.66 196.13 220.66 134.37 254.56 134.37 254.56 276.36"/>
  <polygon class="cls-2" points="261.94 269.99 261.94 134.37 346.7 134.37 346.7 168.28 295.84 168.28 295.84 185.23 346.7 185.23 346.7 219.14 295.84 219.14 295.84 236.09 346.7 236.09 346.7 269.99 261.94 269.99"/>
  <path class="cls-3" d="M101.44,296.64c-1.31-.77-2.35-1.81-3.11-3.12-.76-1.31-1.14-2.75-1.14-4.32s.38-3.01,1.14-4.32c.76-1.31,1.79-2.34,3.1-3.1,1.31-.76,2.77-1.14,4.37-1.14.97,0,1.91.15,2.8.45s1.7.72,2.42,1.26c.13.1.2.22.2.35,0,.1-.04.2-.12.31l-1.91,2.5c-.11.13-.23.2-.35.2-.1,0-.2-.04-.31-.11-.4-.27-.84-.49-1.31-.65-.47-.16-.95-.24-1.42-.24-.76,0-1.47.2-2.13.59-.66.4-1.19.94-1.58,1.63-.4.69-.59,1.45-.59,2.28s.2,1.59.59,2.28c.4.69.93,1.24,1.59,1.64s1.37.6,2.12.6c.54,0,1.02-.07,1.43-.21s.85-.38,1.33-.71c.11-.07.22-.11.32-.11.13,0,.25.07.35.2l1.87,2.51c.09.13.13.24.13.33,0,.11-.06.21-.18.31-.73.56-1.54.99-2.44,1.29-.89.3-1.83.45-2.81.45-1.59,0-3.05-.38-4.36-1.15Z"/>
  <path class="cls-3" d="M115.15,296.64c-1.31-.77-2.35-1.81-3.11-3.12-.76-1.31-1.14-2.75-1.14-4.32s.38-3.01,1.14-4.32c.76-1.31,1.79-2.34,3.1-3.1,1.31-.76,2.77-1.14,4.37-1.14s3.05.38,4.36,1.14c1.31.76,2.35,1.8,3.1,3.1.76,1.31,1.14,2.75,1.14,4.32s-.38,3-1.14,4.32c-.76,1.31-1.79,2.36-3.11,3.13-1.31.77-2.76,1.15-4.35,1.15s-3.05-.38-4.36-1.15ZM121.64,293.14c.66-.4,1.18-.94,1.58-1.64s.59-1.46.59-2.29-.2-1.59-.59-2.28c-.4-.69-.92-1.23-1.58-1.63-.66-.4-1.37-.59-2.12-.59s-1.47.2-2.13.59c-.66.4-1.19.94-1.58,1.63-.4.69-.59,1.45-.59,2.28s.2,1.59.59,2.28c.4.69.93,1.24,1.59,1.64s1.37.6,2.12.6,1.47-.2,2.13-.59Z"/>
  <path class="cls-3" d="M131.97,297.5h-3.33c-.16,0-.28-.04-.35-.13-.08-.09-.11-.21-.09-.37l2.01-15.61c.02-.14.07-.25.16-.32.09-.07.21-.11.35-.11h3.9c.28,0,.45.13.52.4l2.85,10.28,2.84-10.28c.07-.27.24-.4.52-.4h3.91c.14,0,.26.04.35.11.09.07.14.18.16.32l2.03,15.62c.02.16-.02.28-.09.37-.08.09-.2.13-.35.13h-3.34c-.29,0-.46-.15-.49-.45l-.99-9.3-2.54,9.34c-.07.27-.24.4-.52.4h-2.87c-.28,0-.45-.13-.52-.4l-2.54-9.34-1.04,9.29c-.04.3-.2.45-.49.45Z"/>
  <path class="cls-3" d="M151.95,296.98c-1.07-.58-1.89-1.4-2.45-2.43-.56-1.04-.84-2.21-.84-3.53v-9.58c0-.31.16-.47.47-.47h3.3c.31,0,.47.16.47.47v8.98c0,.71.12,1.32.35,1.85.23.53.57.93,1,1.22.44.29.94.43,1.53.43s1.1-.14,1.54-.43c.44-.29.78-.69,1.01-1.22.24-.53.35-1.14.35-1.85v-8.98c0-.31.16-.47.47-.47h3.3c.31,0,.47.16.47.47v9.58c0,1.32-.28,2.5-.85,3.53-.57,1.04-1.39,1.85-2.46,2.43s-2.35.88-3.84.88-2.75-.29-3.82-.88Z"/>
  <path class="cls-3" d="M168.43,297.5h-3.18c-.31,0-.47-.16-.47-.47v-15.6c0-.31.16-.47.47-.47h3.64c.25,0,.44.1.56.31l5.64,9.04v-8.88c0-.31.16-.47.47-.47h3.18c.31,0,.47.16.47.47v15.6c0,.31-.16.47-.47.47h-3.24c-.24,0-.43-.1-.57-.31l-6.04-9.56v9.4c0,.31-.16.47-.47.47Z"/>
  <path class="cls-3" d="M185.17,297.5h-3.3c-.31,0-.47-.16-.47-.47v-15.6c0-.31.16-.47.47-.47h3.3c.31,0,.47.16.47.47v15.6c0,.31-.16.47-.47.47Z"/>
  <path class="cls-3" d="M191.26,296.64c-1.31-.77-2.35-1.81-3.11-3.12-.76-1.31-1.14-2.75-1.14-4.32s.38-3.01,1.14-4.32c.76-1.31,1.79-2.34,3.1-3.1,1.31-.76,2.77-1.14,4.37-1.14.97,0,1.91.15,2.8.45s1.7.72,2.42,1.26c.13.1.2.22.2.35,0,.1-.04.2-.12.31l-1.91,2.5c-.11.13-.23.2-.35.2-.1,0-.2-.04-.31-.11-.4-.27-.84-.49-1.31-.65-.47-.16-.95-.24-1.42-.24-.76,0-1.47.2-2.13.59-.66.4-1.19.94-1.58,1.63-.4.69-.59,1.45-.59,2.28s.2,1.59.59,2.28c.4.69.93,1.24,1.59,1.64s1.37.6,2.12.6c.54,0,1.02-.07,1.43-.21s.85-.38,1.33-.71c.11-.07.22-.11.32-.11.13,0,.25.07.35.2l1.87,2.51c.09.13.13.24.13.33,0,.11-.06.21-.18.31-.73.56-1.54.99-2.44,1.29-.89.3-1.83.45-2.81.45-1.59,0-3.05-.38-4.36-1.15Z"/>
  <path class="cls-3" d="M216.99,297.16c0,.11-.04.19-.11.25-.07.06-.17.09-.29.09h-3.39c-.27,0-.44-.13-.53-.39l-.75-2.2h-5.93l-.75,2.2c-.08.26-.25.39-.53.39h-3.38c-.12,0-.23-.03-.3-.09-.07-.06-.11-.14-.11-.25,0-.06.01-.13.04-.2l6.03-15.65c.09-.25.27-.38.54-.38h2.91c.27,0,.45.13.54.38l5.99,15.65c.02.07.04.14.04.2ZM210.73,291.38l-1.58-4.64-.21-.75-.18.75-1.58,4.64h3.54Z"/>
  <path class="cls-3" d="M231.05,295.75c0,.11-.06.21-.18.31-.61.46-1.28.84-2,1.13-.72.29-1.47.47-2.27.55.24.44.44.88.6,1.31s.25.8.25,1.12c0,.4-.08.75-.25,1.05s-.49.55-.97.77c-.47.21-1.15.35-2.02.42-.33.02-.52-.12-.57-.44l-.12-.91v-.09c-.01-.24.14-.4.45-.46.37-.08.61-.18.72-.32.11-.13.17-.31.17-.54,0-.17-.08-.46-.24-.85-.16-.4-.34-.77-.54-1.12-1.35-.24-2.56-.75-3.64-1.55-1.08-.8-1.92-1.8-2.53-3.01-.61-1.21-.91-2.51-.91-3.9,0-1.57.38-3.01,1.14-4.32.76-1.31,1.79-2.34,3.1-3.1,1.31-.76,2.77-1.14,4.37-1.14.97,0,1.91.15,2.8.45s1.7.72,2.42,1.26c.13.1.2.22.2.35,0,.1-.04.2-.12.31l-1.91,2.5c-.11.13-.23.2-.35.2-.1,0-.2-.04-.31-.11-.4-.27-.84-.49-1.31-.65-.47-.16-.95-.24-1.42-.24-.76,0-1.47.2-2.13.59-.66.4-1.19.94-1.58,1.63-.4.69-.59,1.45-.59,2.28s.2,1.59.59,2.28c.4.69.93,1.24,1.59,1.64s1.37.6,2.12.6c.54,0,1.02-.07,1.43-.21s.85-.38,1.33-.71c.11-.07.22-.11.32-.11.13,0,.25.07.35.2l1.87,2.51c.09.13.13.24.13.33Z"/>
  <path class="cls-3" d="M247,297.16c0,.11-.04.19-.11.25-.07.06-.17.09-.29.09h-3.39c-.27,0-.44-.13-.53-.39l-.75-2.2h-5.93l-.75,2.2c-.08.26-.25.39-.53.39h-3.38c-.12,0-.23-.03-.3-.09-.07-.06-.11-.14-.11-.25,0-.06.01-.13.04-.2l6.03-15.65c.09-.25.27-.38.54-.38h2.91c.27,0,.45.13.54.38l5.99,15.65c.02.07.04.14.04.2ZM236.22,279.75c-.07,0-.15-.02-.25-.07l-.78-.42c-.17-.09-.26-.22-.26-.39,0-.09.02-.18.06-.26.32-.68.67-1.16,1.05-1.44s.78-.41,1.21-.41c.32,0,.62.04.89.11.27.07.59.19.96.34.23.09.41.17.56.21.14.05.28.07.41.07.19,0,.37-.1.55-.31.13-.16.26-.24.39-.24.09,0,.17.03.26.08l.77.42c.17.09.26.22.26.39,0,.09-.02.18-.06.26-.32.68-.67,1.16-1.05,1.44s-.78.41-1.2.41c-.32,0-.62-.04-.89-.11s-.59-.19-.96-.34c-.23-.09-.41-.16-.56-.21-.15-.05-.28-.07-.41-.07-.17,0-.36.1-.55.31-.13.15-.26.22-.4.22ZM240.73,291.38l-1.58-4.64-.21-.75-.18.75-1.58,4.64h3.54Z"/>
  <path class="cls-3" d="M250.33,296.64c-1.31-.77-2.35-1.81-3.11-3.12-.76-1.31-1.14-2.75-1.14-4.32s.38-3.01,1.14-4.32c.76-1.31,1.79-2.34,3.1-3.1,1.31-.76,2.77-1.14,4.37-1.14s3.05.38,4.36,1.14c1.31.76,2.35,1.8,3.1,3.1.76,1.31,1.14,2.75,1.14,4.32s-.38,3-1.14,4.32c-.76,1.31-1.79,2.36-3.11,3.13-1.31.77-2.76,1.15-4.35,1.15s-3.05-.38-4.36-1.15ZM256.82,293.14c.66-.4,1.18-.94,1.58-1.64s.59-1.46.59-2.29-.2-1.59-.59-2.28c-.4-.69-.92-1.23-1.58-1.63-.66-.4-1.37-.59-2.12-.59s-1.47.2-2.13.59c-.66.4-1.19.94-1.58,1.63-.4.69-.59,1.45-.59,2.28s.2,1.59.59,2.28c.4.69.93,1.24,1.59,1.64s1.37.6,2.12.6,1.47-.2,2.13-.59Z"/>
  <path class="cls-3" d="M278.26,297.5h-2.74c-.27,0-.45-.13-.54-.38l-5.98-15.62c-.02-.07-.04-.14-.04-.2,0-.11.04-.19.11-.25.07-.06.17-.09.29-.09h3.56c.27,0,.44.13.53.39l3.42,10.16h.05l3.4-10.16c.09-.26.26-.39.53-.39h3.57c.12,0,.22.03.29.09.07.06.11.14.11.25,0,.06-.01.13-.04.2l-5.97,15.62c-.09.25-.28.38-.54.38Z"/>
  <path class="cls-3" d="M289.43,297.5h-3.3c-.31,0-.47-.16-.47-.47v-15.6c0-.31.16-.47.47-.47h3.3c.31,0,.47.16.47.47v15.6c0,.31-.16.47-.47.47Z"/>
  <path class="cls-3" d="M294.09,297.05c-1.12-.49-2.09-1.2-2.93-2.13-.09-.11-.14-.22-.14-.32,0-.12.06-.24.18-.35l2.08-1.98c.1-.1.21-.15.32-.15.13,0,.24.06.34.18.5.52,1.06.91,1.68,1.17.62.26,1.26.39,1.93.39s1.17-.11,1.5-.34c.33-.23.5-.54.5-.93,0-.27-.07-.5-.22-.69-.15-.2-.42-.39-.84-.59-.41-.2-1.01-.41-1.81-.65-1.31-.38-2.48-1-3.5-1.84-1.02-.84-1.54-1.98-1.54-3.42,0-.86.22-1.64.65-2.37s1.09-1.3,1.98-1.74c.89-.44,1.98-.65,3.27-.65,1.09,0,2.13.2,3.13.59s1.88.92,2.66,1.59c.12.1.18.22.18.34,0,.11-.05.22-.14.33l-1.91,2.14c-.1.13-.22.19-.34.19-.1,0-.21-.04-.32-.13-.44-.35-.94-.64-1.5-.88-.56-.24-1.11-.36-1.65-.36-1.11,0-1.66.33-1.66.98,0,.27.09.51.27.69.18.19.42.35.72.48.3.13.77.31,1.39.53.09.02.22.07.39.13,1.11.39,2.04.81,2.77,1.26.73.45,1.29.99,1.7,1.64.4.65.6,1.43.6,2.34,0,1.05-.26,1.98-.77,2.77-.51.8-1.23,1.41-2.17,1.85-.93.44-2.02.65-3.25.65s-2.46-.24-3.57-.73Z"/>
  <path class="cls-3" d="M308.09,296.98c-1.07-.58-1.89-1.4-2.45-2.43-.56-1.04-.84-2.21-.84-3.53v-9.58c0-.31.16-.47.47-.47h3.3c.31,0,.47.16.47.47v8.98c0,.71.12,1.32.35,1.85.23.53.57.93,1,1.22.44.29.94.43,1.53.43s1.1-.14,1.54-.43c.44-.29.78-.69,1.01-1.22.24-.53.35-1.14.35-1.85v-8.98c0-.31.16-.47.47-.47h3.3c.31,0,.47.16.47.47v9.58c0,1.32-.28,2.5-.85,3.53-.57,1.04-1.39,1.85-2.46,2.43s-2.35.88-3.84.88-2.75-.29-3.82-.88Z"/>
  <path class="cls-3" d="M334.83,297.16c0,.11-.04.19-.11.25-.07.06-.17.09-.29.09h-3.39c-.27,0-.44-.13-.53-.39l-.75-2.2h-5.93l-.75,2.2c-.08.26-.25.39-.53.39h-3.38c-.12,0-.23-.03-.3-.09-.07-.06-.11-.14-.11-.25,0-.06.01-.13.04-.2l6.03-15.65c.09-.25.27-.38.54-.38h2.91c.27,0,.45.13.54.38l5.99,15.65c.02.07.04.14.04.2ZM328.56,291.38l-1.58-4.64-.21-.75-.18.75-1.58,4.64h3.54Z"/>
  <path class="cls-3" d="M346.29,297.5h-10.15c-.31,0-.47-.16-.47-.47v-15.6c0-.31.16-.47.47-.47h3.3c.31,0,.47.16.47.47v12.02h6.38c.31,0,.47.16.47.47v3.11c0,.31-.16.47-.47.47Z"/>
</svg>