<?xml version="1.0" encoding="UTF-8"?>
<svg id="Camada_1" xmlns="http://www.w3.org/2000/svg" version="1.1" viewBox="0 0 1744.08 101.87">
  <!-- Generator: Adobe Illustrator 29.5.1, SVG Export Plug-In . SVG Version: 2.1.0 Build 141)  -->
  <defs>
    <style>
      .st0 {
        fill: #fff;
      }

      .st1 {
        fill: gold;
      }
    </style>
  </defs>
  <g>
    <path class="st1" d="M1492.48,25.91c-20.28,0-36.72,16.42-36.72,36.67s16.44,36.67,36.72,36.67,36.72-16.42,36.72-36.67-16.44-36.67-36.72-36.67ZM1492.48,81.06c-9.56,0-17.32-8.27-17.32-18.47s7.76-18.47,17.32-18.47,17.32,8.27,17.32,18.47-7.75,18.47-17.32,18.47Z"/>
    <path class="st1" d="M1489.27,20.68h13.38c1.31,0,1.59-1.26,2.35-2.33l7.99-11.26c.76-1.07-1.04-2.33-2.35-2.33h-13.38c-1.31,0-1.59,1.26-2.35,2.33l-7.99,11.26c-.76,1.07,1.04,2.33,2.35,2.33Z"/>
    <path class="st1" d="M1449.3,27.01h-51.32c-1.3,0-2.33,1.03-2.33,2.33v13.22c0,1.3,1.03,2.33,2.33,2.33h16.14v50.93c0,1.3,1.02,2.33,2.33,2.33h14.58c1.37,0,2.33-.96,2.33-2.33v-50.93h15.94c1.37,0,2.33-.96,2.33-2.33v-13.22c0-1.36-.96-2.33-2.33-2.33Z"/>
    <path class="st1" d="M1379.68,59.85c-2.43-1.72-5.03-3.01-7.82-3.89-2.79-.87-5.35-1.54-7.68-1.99-.45-.06-1.49-.24-3.11-.53-1.62-.29-3.3-.69-5.05-1.21s-3.31-1.14-4.67-1.85-2.04-1.52-2.04-2.43.28-1.62.83-2.14,1.25-.89,2.09-1.12,1.73-.36,2.67-.39,1.77-.05,2.48-.05c2.39,0,5.02.44,7.87,1.31s5.92,2.35,9.23,4.42c.52.39,1.1.52,1.75.39s1.17-.45,1.56-.97l7.58-10.79c.39-.52.55-1.1.49-1.75-.07-.65-.36-1.2-.88-1.65-3.95-3.05-8.08-5.36-12.39-6.95s-9.19-2.38-14.63-2.38c-3.11,0-6.31.34-9.62,1.02-3.3.68-6.3,1.88-8.99,3.6-2.69,1.72-4.91,4.03-6.66,6.95-1.75,2.91-2.62,6.61-2.62,11.08,0,3.04.47,5.68,1.41,7.92.94,2.23,2.18,4.16,3.74,5.78,1.56,1.63,3.32,2.95,5.3,3.99s3.97,1.9,5.98,2.58c2.01.69,3.97,1.2,5.88,1.56,1.92.35,3.58.66,5.01.92,1.49.33,2.94.59,4.37.78,1.42.2,2.67.46,3.74.78s1.93.72,2.58,1.21c.65.48.97,1.15.97,1.99,0,1.62-.75,2.84-2.24,3.65s-3.53,1.22-6.51,1.22-6.19-.64-9.62-1.94-6.9-3.08-10.4-5.35l-.02-.02c-.52-.32-1.1-.42-1.75-.29s-1.17.45-1.56.97l-7.48,10.79c-.39.52-.55,1.12-.49,1.8s.35,1.21.87,1.6c1.82,1.49,3.81,2.9,5.98,4.23s4.52,2.48,7.05,3.45c2.53.97,5.25,1.73,8.17,2.28,2.92.55,6.06.83,9.43.83,4.14,0,7.92-.44,11.32-1.31s6.32-2.22,8.75-4.03,4.33-4.13,5.69-6.95,2.04-6.17,2.04-10.06c0-4.14-.83-7.6-2.48-10.35-1.65-2.76-3.69-4.99-6.12-6.71Z"/>
    <path class="st1" d="M1286.89,27.01h-14.58c-1.39,0-2.33.86-2.33,2.33v21.97c0,1.29-1.02,2.33-2.32,2.33h-19.96c-1.37,0-2.32-.98-2.32-2.33v-21.97c0-1.31-1.04-2.33-2.35-2.33h-14.55c-1.38,0-2.35.95-2.35,2.33v66.49c0,1.38.97,2.33,2.35,2.33h14.55c1.31,0,2.35-1.01,2.35-2.33v-21.77c0-1.35.96-2.33,2.32-2.33h19.96c1.3,0,2.32,1.04,2.32,2.33v21.77c0,1.37.96,2.33,2.33,2.33h14.58c1.3,0,2.33-1.02,2.33-2.33V29.34c0-1.3-1.02-2.33-2.33-2.33Z"/>
    <path class="st1" d="M1316.98,27.06h-14.61c-1.37,0-2.32.98-2.32,2.33v66.39c0,1.35.96,2.33,2.32,2.33h14.61c1.3,0,2.32-1.04,2.32-2.33V29.39c0-1.29-1.02-2.33-2.32-2.33Z"/>
    <path class="st1" d="M1712.43,95l-28.19-65.81c-.68-1.59-2.29-2.14-3.3-2.14h-13.38c-1,0-2.62.55-3.3,2.14l-28.19,65.81c-.78,1.81.26,3.11,2.04,3.11h16.72c1.3,0,2.7-.95,3.21-2.14l2.52-5.83c.7-1.5,1.95-2.14,3.31-2.14h20.67c1.36,0,2.6.65,3.3,2.14l2.62,5.83c.51,1.19,1.91,2.14,3.21,2.14h16.72c1.78,0,2.82-1.3,2.04-3.11h0ZM1677.89,71.48h-7.66c-1.26,0-1.26-1.04-1-1.68l5.02-11.84h.01l4.96,11.84c.26.64-.07,1.68-1.33,1.68Z"/>
    <path class="st1" d="M1596.54,53.26c0-14.53-11.85-26.25-26.34-26.25h-29.74c-1.3,0-2.33,1.03-2.33,2.33v66.49c0,1.29,1.02,2.33,2.32,2.33h14.61c1.3,0,2.32-1.04,2.32-2.33v-16.82h6.41l10.05,16.82c.65,1.1,1.05,2.33,2.33,2.33h17.75c1.28,0,2.98-1.23,2.33-2.33l-12.1-20.41h.01c7.58-4.03,12.38-11.46,12.38-22.16ZM1570.17,60.94h-10.45c-1.3,0-2.35-1.01-2.35-2.32v-11.41c0-1.31,1.05-2.32,2.35-2.32h9.17c4.81,0,8.41,3.5,8.41,8.32,0,4.43-2.5,7.73-7.13,7.73Z"/>
    <path class="st1" d="M1623.89,27.06h-14.61c-1.37,0-2.32.98-2.32,2.33v66.39c0,1.35.96,2.33,2.32,2.33h14.61c1.3,0,2.32-1.04,2.32-2.33V29.39c0-1.29-1.02-2.33-2.32-2.33Z"/>
  </g>
  <g>
    <path class="st0" d="M562.8,44.1c5.13,0,9.24,1.52,12.58,4.55,0,0,2.37,2.71,4.5,1.14l11.45-8.46c1.93-1.42-.27-3.56-.34-3.64-7.2-7.7-16.04-11.66-28.18-11.66-20.24,0-37.21,15.99-37.42,36.37.21,20.39,17.18,36.37,37.42,36.37,12.14,0,20.98-3.96,28.18-11.66.07-.08,2.26-2.22.34-3.64l-11.45-8.46c-2.12-1.57-4.5,1.14-4.5,1.14-3.34,3.03-7.46,4.55-12.58,4.55-9.83,0-17.56-8.75-17.78-18.3.22-9.55,7.94-18.3,17.78-18.3Z"/>
    <polygon class="st0" points="525.39 62.41 525.39 62.4 525.39 62.39 525.39 62.41"/>
    <path class="st0" d="M390.37,26.84h-29.74c-1.3,0-2.33,1.03-2.33,2.33v66.49c0,1.29,1.02,2.33,2.32,2.33h14.61c1.3,0,2.32-1.04,2.32-2.33v-16.82h10.82-.01c16.21.01,28.35-8.72,28.35-25.75,0-14.53-11.85-26.25-26.34-26.25h0ZM390.34,60.77h-10.45c-1.3,0-2.35-1.01-2.35-2.32v-11.41c0-1.31,1.05-2.32,2.35-2.32h9.17c4.81,0,8.41,3.5,8.41,8.32,0,4.43-2.5,7.73-7.13,7.73h0Z"/>
    <path class="st0" d="M517.33,26.84h-14.39c-1.3,0-2.33,1.03-2.33,2.33v37.8l-27.12-38.28c-.78-1.05-2.38-1.85-3.69-1.85h-14.58c-1.3,0-2.33,1.03-2.33,2.33v66.49c0,1.31,1.04,2.33,2.35,2.33h14.55c1.31,0,2.35-1.01,2.35-2.33v-37.87l27.17,38.26c.79,1.04,2.35,1.94,3.68,1.94h14.35c1.3,0,2.33-1.02,2.33-2.33V29.17h-.01c0-1.3-1.02-2.33-2.33-2.33h0Z"/>
    <polygon class="st0" points="10.24 62.41 10.24 62.4 10.24 62.39 10.24 62.41"/>
    <path class="st0" d="M47.65,44.1c5.13,0,9.24,1.52,12.58,4.55,0,0,2.37,2.71,4.5,1.14l11.45-8.46c1.93-1.42-.27-3.56-.34-3.64-7.2-7.7-16.04-11.66-28.18-11.66-20.24,0-37.21,15.99-37.42,36.37.21,20.39,17.18,36.37,37.42,36.37,12.14,0,20.98-3.96,28.18-11.66.07-.08,2.26-2.22.34-3.64l-11.45-8.46c-2.12-1.57-4.5,1.14-4.5,1.14-3.34,3.03-7.46,4.55-12.58,4.55-9.84,0-17.56-8.75-17.78-18.3.22-9.55,7.94-18.3,17.78-18.3Z"/>
    <path class="st0" d="M268.99,29.02c-.68-1.59-2.29-2.14-3.3-2.14h-13.38c-1.01,0-2.63.55-3.31,2.14l-28.19,65.81c-.78,1.81.26,3.11,2.04,3.11h16.72c1.3,0,2.7-.95,3.21-2.14l2.52-5.83c.7-1.5,1.95-2.14,3.31-2.14h20.68c1.36,0,2.6.65,3.3,2.14l2.62,5.83c.51,1.19,1.91,2.14,3.21,2.14h16.72c1.78,0,2.82-1.3,2.04-3.11l-28.19-65.81h0ZM262.63,71.31h-7.66c-1.26,0-1.26-1.04-1-1.68l5.02-11.84h.01l4.96,11.84c.26.64-.07,1.68-1.33,1.68h0Z"/>
    <path class="st0" d="M189.09,26.84h-26.54c-1.3,0-2.33,1.03-2.33,2.33v66.49h0c0,1.31,1.02,2.34,2.33,2.34h26.54c21.43,0,35.67-14.42,35.67-35.58s-13.98-35.58-35.67-35.58h0ZM190.84,80.01h-9.18c-1.86.01-2.2-.5-2.2-2.32v-30.85c0-1.31.38-2.01,1.68-2.01h9.48c9.04,0,14.7,6.64,14.7,17.59,0,13.23-8.21,17.59-14.48,17.59Z"/>
    <path class="st0" d="M126.68,29.02c-.68-1.59-2.29-2.14-3.3-2.14h-13.38c-1,0-2.62.55-3.3,2.14l-28.19,65.81c-.78,1.81.26,3.11,2.04,3.11h16.72c1.3,0,2.7-.95,3.21-2.14l2.52-5.83c.69-1.5,1.94-2.14,3.3-2.14h20.68c1.36,0,2.6.65,3.3,2.14l2.62,5.83c.51,1.19,1.91,2.14,3.21,2.14h16.72c1.78,0,2.82-1.3,2.04-3.11l-28.19-65.81h0ZM120.32,71.31h-7.66c-1.26,0-1.26-1.04-1-1.68l5.02-11.84h.01l4.96,11.84c.26.64-.07,1.68-1.33,1.68Z"/>
    <path class="st0" d="M441.98,26.89h-14.61c-1.37,0-2.32.98-2.32,2.33v66.39c0,1.35.96,2.33,2.32,2.33h14.61c1.3,0,2.32-1.04,2.32-2.33V29.22c0-1.29-1.02-2.33-2.32-2.33Z"/>
    <path class="st0" d="M842.01,26.84h-26.54c-1.3,0-2.33,1.03-2.33,2.33v66.49h0c0,1.31,1.03,2.34,2.33,2.34h26.54c21.43,0,35.67-14.42,35.67-35.58s-13.98-35.58-35.67-35.58h0ZM843.76,80.01h-9.18c-1.86.01-2.2-.5-2.2-2.32v-30.85c0-1.31.38-2.01,1.68-2.01h9.48c9.04,0,14.7,6.64,14.7,17.59,0,13.23-8.21,17.59-14.48,17.59Z"/>
    <path class="st0" d="M778.16,29.02c-.68-1.59-2.29-2.14-3.3-2.14h-13.38c-1.01,0-2.63.55-3.31,2.14l-28.19,65.81c-.78,1.81.26,3.11,2.04,3.11h16.72c1.3,0,2.7-.95,3.21-2.14l2.52-5.83c.69-1.5,1.94-2.14,3.3-2.14h20.69c1.36,0,2.6.65,3.3,2.14l2.62,5.83c.51,1.19,1.91,2.14,3.21,2.14h16.72c1.78,0,2.82-1.3,2.04-3.11l-28.19-65.81h0ZM771.79,71.31h-7.66c-1.26,0-1.26-1.04-1-1.68l5.02-11.84h0l4.96,11.84c.26.64-.07,1.68-1.33,1.68h.01Z"/>
    <path class="st0" d="M1141.91,26.89h-13.54c-1.27,0-2.9.86-3.58,1.94l-17.34,27.89-17.34-27.89c-.68-1.08-2.31-1.94-3.58-1.94h-13.54c-1.3,0-2.32,1.04-2.32,2.33v66.4c0,1.29,1.02,2.33,2.32,2.33h14.61c1.3,0,2.32-1.04,2.32-2.33v-33.41l10.92,16.26c.56.83,1.54,1.24,2.34,1.24h-.03,8.57c.81,0,1.78-.41,2.34-1.24l10.92-16.26v33.41c0,1.29,1.02,2.33,2.32,2.33h14.61c1.3,0,2.32-1.04,2.32-2.33V29.22c0-1.29-1.02-2.33-2.32-2.33Z"/>
    <path class="st0" d="M655.91,26.84h-49.48c-.65,0-1.2.23-1.65.68s-.68,1-.68,1.65v66.46c0,1.3,1.02,2.33,2.33,2.33h49.48c1.3,0,2.33-1.02,2.33-2.33v-13.41c0-1.3-1.03-2.33-2.33-2.33h-30.23c-1.3,0-2.33-1.02-2.33-2.33v-3.69c0-1.3,1.03-2.33,2.33-2.33h24.33c1.3,0,2.33-1.03,2.33-2.33v-13.41c0-1.3-1.03-2.33-2.33-2.33h-24.33c-1.3,0-2.33-1.03-2.33-2.33v-4.08h0c0-1.31,1.02-2.34,2.33-2.34h30.23c1.3,0,2.33-1.03,2.33-2.33v-13.22c0-1.3-1.03-2.33-2.33-2.33Z"/>
    <path class="st0" d="M720.9,80.11h-31.59V29.17c0-1.3-1.03-2.33-2.33-2.33h-14.58c-1.37,0-2.33.96-2.33,2.33v66.49c0,1.37.96,2.33,2.33,2.33h48.5c1.3,0,2.33-1.02,2.33-2.33v-13.22h0c0-1.3-1.02-2.33-2.33-2.33h0Z"/>
    <path class="st0" d="M1057.9,27.04h-14.61c-1.3,0-2.32,1.04-2.32,2.33v39.37c0,7.18-4.26,12.73-11.71,12.73s-11.81-5.5-11.81-12.73V29.37c0-1.29-1.02-2.33-2.32-2.33h-14.61c-1.3,0-2.32,1.04-2.32,2.33h0v39.37c0,18.6,12.56,30.52,31.06,30.52s30.96-11.89,30.96-30.52V29.37c0-1.29-1.02-2.33-2.32-2.33h0Z"/>
    <path class="st0" d="M923.4,29.02c-.68-1.59-2.29-2.14-3.3-2.14h-13.38c-1.01,0-2.63.55-3.31,2.14l-28.19,65.81c-.78,1.81.26,3.11,2.04,3.11h16.72c1.3,0,2.7-.95,3.21-2.14l2.52-5.83c.69-1.5,1.94-2.14,3.3-2.14h20.69c1.36,0,2.6.65,3.3,2.14l2.62,5.83c.51,1.19,1.91,2.14,3.21,2.14h16.72c1.78,0,2.82-1.3,2.04-3.11,0,0-28.19-65.81-28.19-65.81ZM917.04,71.31h-7.66c-1.26,0-1.26-1.04-1-1.68l5.02-11.84h0l4.96,11.84c.26.64-.07,1.68-1.33,1.68h.01Z"/>
  </g>
</svg>