<?xml version="1.0" encoding="UTF-8"?>
<svg id="Camada_1" xmlns="http://www.w3.org/2000/svg" version="1.1" viewBox="0 0 1371.68 201.02">
  <!-- Generator: Adobe Illustrator 29.5.1, SVG Export Plug-In . SVG Version: 2.1.0 Build 141)  -->
  <defs>
    <style>
      .st0 {
        fill: #ffd720;
      }

      .st0, .st1 {
        isolation: isolate;
        opacity: .95;
      }

      .st1 {
        fill: #fff;
      }
    </style>
  </defs>
  <g>
    <path class="st0" d="M1341.18,111.5c-7.53,0-9.6,5.43-17.43,5.43-1.2,0-2.55-.13-4.11-.42.39-2.39.68-4.59.68-6.66,0-7.83-3.56-14.84-11.54-14.84-6.37,0-12.55,4.82-12.9,11.19-6.86,4.92-12.81,18.46-12.81,29.26,0,7.15,3.65,15.81,11.74,15.81,11.29,0,18.85-15.78,22.09-24.48,2.23.55,4.49.81,6.82.81,5.53,0,21.15-7.08,21.15-12.32,0-2.94-.91-3.78-3.69-3.78ZM1296.42,140.34c-1.58-.58-2.49-.97-2.49-3.14,0-5.24,6.72-14.01,9.64-17.52.45.39.94.74,1.42,1.13-1.23,6.86-4.75,17.36-8.57,19.53Z"/>
    <path class="st0" d="M1348.23,42.43c-.68,0-22.44,1.07-43.46,3.36,3.49-6.21,6.34-11.16,8.76-12.71,2.23-.71,4.43-2.36,4.43-5.3,0-4.49-5.76-8.25-10.19-8.25-8.15,0-11.71,13.35-18.69,28.13-22.47,2.85-41.65,5.82-46.6,6.63h-.78c-3.62.26-6.95,3.2-6.95,6.63,0,4.04,4.24,5.14,10.02,5.14h.02c12.93.01,34.57-6.36,38.93-6.62-4.34,9.73-14.18,31.5-22.61,54.51-5.26,4.68-11.28,14.27-17.3,14.27-3.95,0-.29-27.84-11.54-27.84-3.69,0-8.99,2.98-16.65,10.93.68-1,.94-2.65.94-4.07,0-4.98-3.88-10.64-9.02-10.64-8.73,0-35.76,44.01-49.93,44.01-3.46,0-4.56-1.68-4.56-3.85,0-2.33,1.23-5.21,2.1-7.28,11.45-4.88,25.8-17.17,25.8-26.74,0-5.14-2.97-9.86-8.44-9.86-9.35,0-18.88,12.33-24.59,24.74-4.2,5.81-8.76,13.68-13.66,13.68-2,0-2.33-2.65-2.33-6.4,0-2.07.1-4.43.1-6.89,0-8.21-1.2-17.24-11.48-17.24-7.11,0-15.13,15.49-18.14,17.85.23-3.49.55-7.34.55-10.83,0-6.31-.74-16.46-8.15-16.46h-.52c-6.21,0-10.64,4.56-14.26,8.15-.74-3.88-4.37-6.4-8.73-6.4-5.78,0-11.19,10.98-15.13,23.33-8.45,7.49-20.03,14.99-28.8,19.89.23-10.77,9.86-16.59,9.86-27.52,0-4.32-3.12-7.26-7.05-7.28h0c-5.11,0-9.25,4.25-10.15,8.74-1.49,7.95-6.43,15.23-6.43,24.25,0,7.11,5.56,12.13,12.13,12.13,6.2,0,16.8-5,25.69-11.42-1,5.23-1.55,9.69-1.55,12.4,0,4.37,3.23,7.86,7.66,7.86h.39c3.62-.32,7.28-3.2,7.28-7.47,0-.29-.06-.55-.1-.74,3.59-11.25,16.43-37.32,26.35-43.33-2.43,12.03-6.4,30.27-6.4,34.57,0,4.82,6.82,7.47,10.41,7.47,10.9,0,22.22-33.44,24.71-33.44,0,0-2.01,8.67-2.01,17.14s3.04,16.59,12,16.59c4.05,0,8.59-2.48,12.82-6.08,1.24,6.49,5.93,11.89,13.14,11.89s25.13-14.26,37.45-26.87c-.87,4.82-3.01,10.53-3.01,10.53-.19.65-.26,1.33-.26,1.97,0,3.88,3.1,7.44,7.53,7.44,9.12,0,23.35-21.6,29.14-26.61.71,9.83,3.49,22.05,13.94,22.05h.16c2.48,0,7.9-2.82,13.31-6.76-4.47,14.46-7.58,28.18-7.58,38.42,0,12.58,2.49,13.03,2.49,13.03.71,1,2.04,1.49,3.52,1.49,3.52,0,9.22-2.59,9.57-7.31-1.13-2.2-1.62-5.21-1.62-8.8,0-23.61,24.32-82.62,38.16-113.24,15.81-2.26,23.28-2.94,35.93-2.94,11.32,0,17.69,1.07,24.16,1.07,4.4,0,7.37-.74,7.37-4.66,0-8.18-8.7-8.44-18.14-8.44Z"/>
    <path class="st0" d="M1030.15,101.5s.02,0,.03,0h0s-.03,0-.03,0Z"/>
    <path class="st0" d="M1037.93,89.98c5.89,0,13.68-5.79,13.68-11.96,0-5.17-3.94-10.54-9.41-10.54-8.08,0-9.22,7.53-9.22,16.39v.22c0,2.59,1.58,5.89,4.95,5.89Z"/>
    <path class="st0" d="M1028.83,57.4c15.81-2.26,23.28-2.94,35.93-2.94,11.32,0,17.69,1.07,24.16,1.07,4.4,0,7.37-.74,7.37-4.66,0-8.18-8.7-8.44-18.14-8.44-.68,0-22.44,1.07-43.46,3.36,3.49-6.21,6.34-11.16,8.76-12.71,2.23-.71,4.43-2.36,4.43-5.3,0-4.49-5.76-8.25-10.19-8.25-8.15,0-11.71,13.35-18.69,28.13-22.47,2.85-41.65,5.82-46.6,6.63h-.78c-3.62.26-6.95,3.2-6.95,6.63,0,4.04,4.24,5.14,10.02,5.14h.02c12.93.01,34.57-6.36,38.93-6.62-4.34,9.73-14.18,31.5-22.61,54.51-5.25,4.68-11.28,14.27-17.3,14.27-3.95,0-.29-27.84-11.54-27.84-3.69,0-8.99,2.98-16.65,10.93.68-1,.94-2.65.94-4.07,0-4.98-3.88-10.64-9.02-10.64-8.73,0-35.76,44.01-49.93,44.01-3.46,0-4.56-1.68-4.56-3.85,0-2.33,1.23-5.21,2.1-7.28,11.45-4.88,25.8-17.17,25.8-26.74,0-5.14-2.97-9.86-8.44-9.86-8.85,0-17.85,11.04-23.63,22.74,0,0,0,0,0,0-10.27,6.44-14.79,10.31-21.58,13.63-.78-2.43-3.85-13.26-4.46-15.62,0-4.53,12.03-8.67,12.03-15.52h.02c0-4.88-2.04-9.11-7.15-9.11h-1.16c-11.25,0-18.3,13.26-18.3,22.7,0,6.6,5.3,18.66,7.21,24.25-11.38,10.44-15.55,19.05-15.55,25.22,0,7.24,5.63,11.25,12.13,11.25,8.76,0,18.92-7.28,18.92-23.7,0-2.78-.29-5.79-.94-9.09,5.36-2.8,9.08-5.03,13.07-7.64h0s0,0,0,0c-.32,1.72-.49,3.32-.49,4.71,0,7.92,5.01,15.36,13.48,15.36,7.47,0,25.13-14.26,37.45-26.87h.01c-.87,4.81-3.01,10.53-3.01,10.53-.19.65-.26,1.33-.26,1.97,0,3.88,3.1,7.44,7.53,7.44,9.12,0,23.35-21.6,29.13-26.61.71,9.83,3.49,22.05,13.94,22.05h.16c2.48,0,7.9-2.82,13.31-6.76-4.47,14.46-7.58,28.18-7.58,38.42,0,12.58,2.49,13.03,2.49,13.03.71,1,2.04,1.49,3.52,1.49,3.52,0,9.22-2.59,9.57-7.31-1.13-2.2-1.62-5.21-1.62-8.8,0-23.61,24.32-82.62,38.16-113.24ZM841.12,159.22c-.39,0-.61-.19-.61-.68,0-1.39,1.91-4.88,7.7-11.47.06.39.06.78.06,1.16,0,5.95-5.34,10.99-7.15,10.99Z"/>
    <polygon class="st0" points="864.81 98.11 864.8 98.11 864.8 98.12 864.81 98.11"/>
  </g>
  <g>
    <path class="st1" d="M803.13,111.55h.01c-5.95,0-12.87,19.75-20.63,19.75-2,0-2.33-2.65-2.33-6.4,0-2.07.1-4.43.1-6.89,0-8.21-1.2-17.24-11.48-17.24-7.11,0-15.13,15.49-18.14,17.85.23-3.49.55-7.34.55-10.83,0-6.31-.74-16.46-8.15-16.46h-.52c-6.21,0-10.64,4.56-14.26,8.15-.74-3.88-4.37-6.4-8.73-6.4-6.04,0-11.68,11.99-15.65,24.99-4.52,5.57-12.82,11.09-17.16,11.45-2.36-.84-3.01.1-3.01-2.98,0-6.4,6.4-13.13,6.4-18.43,0-4.24-3.56-8.05-7.86-8.05-7.89,0-18.92,29.46-23.7,34.5,1-9.28,8.86-18.4,8.86-26.45,0-4.3-3.33-7.86-7.66-7.86-11.41,0-15.04,25.19-15.04,31.92h.02c0,6.98,1.94,15.62,9.41,15.62h.45c8.25,0,14.84-11.54,19.27-17.2,1.71,5.37,5.79,10.02,12.09,10.02,3.74,0,8.76-2,13.61-4.96-.94,5.04-1.47,9.32-1.47,11.95,0,4.37,3.23,7.86,7.66,7.86h.39c3.62-.32,7.28-3.2,7.28-7.47,0-.29-.06-.55-.1-.74,3.59-11.25,16.43-37.32,26.35-43.33-2.43,12.03-6.4,30.27-6.4,34.57,0,4.82,6.82,7.47,10.41,7.47,10.9,0,22.22-33.44,24.7-33.44,0,0-2,8.67-2,17.14s3.04,16.59,12,16.59c11.96,0,28.16-21.57,28.16-30.11,0-1.97-1.33-4.59-3.43-4.59Z"/>
    <path class="st1" d="M614.84,111.15h-.03c-3.65,0-26.87,29.46-40.03,29.46-3.46,0-4.56-1.68-4.56-3.85,0-2.33,1.23-5.21,2.1-7.28,11.45-4.88,25.84-17.17,25.84-26.74,0-5.14-2.97-9.86-8.44-9.86-14.75,0-29.91,30.53-29.91,43.82,0,7.92,5.01,15.36,13.48,15.36,13.13,0,44.85-23.8,44.85-35.25,0-3.82-1.36-5.53-3.3-5.66Z"/>
    <path class="st1" d="M591.28,89.2h0c1.52-.01,2.75-.66,3.56-1.14,5.14-2.97,10.7-7.57,12.71-13.81.32-.74.36-1.46.36-1.81,0-.1-.03-.16-.03-.23,0-3.4-2.85-5.72-6.11-5.72-2.04,0-4.75.87-5.08,3.14-.97,3.33-3.36,6.76-6.5,8.15-1.2.13-1.91.97-2.13,1.2-1,.97-2.49,2.52-2.49,4.69,0,3.14,2.68,5.53,5.72,5.53Z"/>
    <path class="st1" d="M532.13,111.5c-7.53,0-9.6,5.43-17.43,5.43-1.2,0-2.55-.13-4.11-.42.39-2.39.68-4.59.68-6.66,0-7.83-3.56-14.84-11.54-14.84-6.37,0-12.55,4.82-12.9,11.19-3.02,2.17-5.87,6.01-8.11,10.54-10.76,11.48-27.21,20.18-33.63,20.18-3.33,0-7.76-.65-7.76-3.07,0-2.04,1.45-5.33,3.5-8.97.33-.52.62-1.03.89-1.54.02-.03.04-.07.06-.1,0,0,0,0,0,0,0,0,0,0,0,0,4.41-7.4,10.73-15.62,12.29-17.43-.52,1.78-.81,3.78-.81,5.76,0,4.82,1.65,9.41,5.37,9.41,3.23,0,5.24-2.59,5.24-4.85h.02c0-2.33,1.97-8.21,1.97-13.58s-2.46-9.86-8.67-9.86c-12.57,0-23.95,16-28.46,30.21,0,0,0,0,0,0-5.18,5.37-11.86,10.07-16.18,11.61-.06-.42-.1-.91-.1-1.49,0-3.56,6.01-13.48,6.01-21.41v-.13c0-2.1-.94-3.85-2.2-5.04.74-1.13,1.23-2.52,1.23-4.01,0-5.34-5.66-8.8-10.38-8.8-9.9,0-20.42,9.57-27.31,20.22-2.34,2.2-4.95,4.8-7.05,5.41-8.5-2.49-4.11-19.6-15.42-19.6-2.72,0-7.02,4.11-8.86,4.91.03-.1.03-.16.03-.26,0-4.46-4.49-7.37-8.63-7.37-3.01,0-7.86,2.43-7.86,5.92v.13c-3.01,9.83-10.28,27.97-10.28,39.06v1.94c0,4.11,3.49,7.86,7.86,7.86h.16c.06.03.16.03.32.03,13.52,0,14.13-38.09,25.87-38.09v-.16c4.23.03,2.55,15.39,16.13,15.39.23,0,.49-.02.76-.03-.48,1.94-.74,3.76-.74,5.38,0,6.05,3.72,10.96,10.19,10.96,7.11,0,12.93-6.6,16.94-11.16.87,6.31,5.4,11.16,12.55,11.16,4.3,0,10.02-2.69,15.43-6.56,0,0,0,0,.01-.01,1.7,6.58,7.29,11.15,14.59,11.15h.19c5.2,0,20.15-6.32,32.03-14.3.05,7.12,3.71,15.65,11.74,15.65,11.29,0,18.85-15.78,22.09-24.48,2.23.55,4.49.81,6.82.81,5.53,0,21.15-7.08,21.15-12.32,0-2.94-.91-3.78-3.69-3.78ZM387.91,131.1c.74-7.95,10.48-20.18,13.55-20.18.13,0,.23,0,.32.03-1.94,2.46-11.9,17.59-13.87,20.15ZM487.37,140.34c-1.58-.58-2.49-.97-2.49-3.14,0-5.24,6.72-14.01,9.64-17.52.45.39.94.74,1.42,1.13-1.23,6.86-4.75,17.36-8.57,19.53Z"/>
    <path class="st1" d="M435.89,157.71c1.07-1.42,1.29-2.94,1.29-3.94,0-2.49-1.97-4.75-4.56-4.75-1.84,0-3.36,1.07-4.33,2.17-1.78,1.97-4.24,4.62-5.56,6.37-.65.87-1.65,2.3-1.65,4.17,0,.65.1,1.26.32,1.88-.19,0-.32-.03-.42-.03-3.4,0-5.34,3.36-5.34,6.31v-.02c0,3.3,2.63,5.92,5.93,5.92,7.21,0,12.84-2.72,16.07-5.95,1.55-1.52,3.04-3.59,3.04-6.18,0-3.1-2.33-5.21-4.79-5.95Z"/>
    <path class="st1" d="M337.36,57.4c15.81-2.26,23.28-2.94,35.93-2.94,11.32,0,17.69,1.07,24.16,1.07,4.4,0,7.37-.74,7.37-4.66,0-8.18-8.7-8.44-18.14-8.44-.68,0-22.44,1.07-43.46,3.36,3.49-6.21,6.34-11.16,8.76-12.71,2.23-.71,4.43-2.36,4.43-5.3,0-4.49-5.76-8.25-10.19-8.25-8.15,0-11.71,13.35-18.69,28.13-22.47,2.85-41.65,5.82-46.6,6.63h-.78c-3.62.26-6.95,3.2-6.95,6.63,0,4.04,4.24,5.14,10.02,5.14h.02c12.93.01,34.57-6.36,38.93-6.62-8.34,18.69-36.93,81.75-36.93,112.79,0,12.58,2.49,13.03,2.49,13.03.71,1,2.04,1.49,3.52,1.49,3.52,0,9.22-2.59,9.57-7.31-1.13-2.2-1.62-5.21-1.62-8.8,0-23.61,24.32-82.62,38.16-113.24Z"/>
    <path class="st1" d="M265.58,112.21c-1.52,0-3.07.81-4.01,2.62-4.14,8.05-15.84,17.4-22.28,19.69-.06-.42-.1-.91-.1-1.49,0-3.56,6.01-13.48,6.01-21.41v-.13c0-2.1-.94-3.85-2.2-5.04.74-1.13,1.23-2.52,1.23-4.01,0-5.34-5.66-8.8-10.38-8.8-16.62,0-35.02,27-35.02,40.74,0,6.05,3.72,10.96,10.19,10.96,7.11,0,12.93-6.6,16.94-11.16.87,6.31,5.4,11.16,12.55,11.16,11.12,0,31.79-17.98,31.79-28.04-.01-3.16-2.37-5.09-4.72-5.09ZM214.65,131.1c.74-7.95,10.48-20.18,13.55-20.18.13,0,.23,0,.32.03-1.94,2.46-11.9,17.59-13.87,20.15Z"/>
    <path class="st1" d="M242.98,16.82c0-5.3-3.46-10.38-9.02-10.38-17.82,0-44.82,64.8-53.35,91.9-17.12.67-29.32,13.31-33.59,27.55-4.54,4.06-9.58,7.39-13.08,8.63-.06-.42-.1-.91-.1-1.49,0-3.56,6.01-13.48,6.01-21.41v-.13c0-2.1-.94-3.85-2.2-5.04.74-1.13,1.23-2.52,1.23-4.01,0-5.34-5.66-8.8-10.38-8.8-9.39,0-19.35,8.62-26.23,18.59,0,0,0,0,0,0-.73.63-1.33,1.37-1.73,2.14-8.99,17.33-35.44,44.66-61.57,44.66-15.52,0-21.67-17.62-21.67-33.05,0-29.23,29.36-102.51,63.28-102.51.61-.19,1.23-.26,1.81-.26,4.04,0,6.31,4.24,6.31,10.32,0,8.25-1.94,20.44-11.64,29.62-6.6.97-11.93,12.97-11.93,19.14,0,4.33,2.13,9.41,7.08,9.41,17.56,0,30.65-29.94,30.65-53.26,0-15.26-5.63-27.84-19.27-27.84-.48,0-.97.06-1.46.06-43.62.01-77.44,81.37-77.44,118.62,0,21.67,10.93,42.94,32.14,42.94,19.8,0,43.47-15.33,59.25-30.19,0,0,0,0,0,0,1.73,2.04,4.31,3.3,7.59,3.3,7.11,0,12.93-6.6,16.94-11.16.87,6.31,5.4,11.16,12.55,11.16,3.51,0,7.98-1.8,12.44-4.57,1.01,7.47,5.16,11.83,11.92,11.83,3.65,0,7.27-1.13,10.4-3.39-1.84,7.15-8.8,26.29-8.8,38.58,0,6.47,2.07,11.03,7.44,11.03,4.14,0,7.31-3.36,7.31-7.47,0-.65-.13-1-.19-1.39v-.1c0-2.17-1.36-2.55-1.36-6.86,0-13.87,5.89-30.36,11.03-50.93,14.07-19.5,59.63-89.86,59.63-115.25ZM109.3,131.1c.74-7.95,10.48-20.18,13.55-20.18.13,0,.23,0,.32.03-1.94,2.46-11.9,17.59-13.87,20.15ZM173.03,125.73c-3.27,4.07-7.47,8.25-11.58,10.38-1.49-.32-2.33-1.26-2.33-2.62,0-5.69,11.19-18.37,16.91-20.24h0c-1,3.52-2.17,8.96-3.01,12.48Z"/>
  </g>
</svg>